<?xml version="1.0" encoding="us-ascii" standalone="no"?><svg xmlns="http://www.w3.org/2000/svg" xmlns:xlink="http://www.w3.org/1999/xlink" contentStyleType="text/css" height="774px" preserveAspectRatio="none" style="width:1636px;height:774px;background:#FFFFFF;" version="1.1" viewBox="0 0 1636 774" width="1636.5px" zoomAndPan="magnify"><defs><style type="text/css">@import url('https://fonts.googleapis.com/css?family=Roboto:400,100,100italic,300,300italic,400italic,500,500italic,700,700italic,900,900italic');</style></defs><g><!--class VonNeumannArchitecture--><g id="elem_VonNeumannArchitecture"><rect codeLine="3" fill="#EEEEEE" height="72" id="VonNeumannArchitecture" rx="3.75" ry="3.75" style="stroke:#E74C3C;stroke-width:3.0;" width="328.5" x="1026" y="10.5"/><ellipse cx="1048.5" cy="34.5" fill="#ADD1B2" rx="16.5" ry="16.5" style="stroke:#181818;stroke-width:1.5;"/><path d="M1052.6484,28.3125 Q1052.8828,27.9844 1053.1641,27.8203 Q1053.4453,27.6563 1053.7734,27.6563 Q1054.3359,27.6563 1054.6875,28.0547 Q1055.0391,28.4297 1055.0391,29.3438 L1055.0391,31.5234 Q1055.0391,32.4375 1054.6875,32.8359 Q1054.3359,33.2344 1053.7734,33.2344 Q1053.2578,33.2344 1052.9531,32.9297 Q1052.6484,32.6484 1052.4844,31.875 Q1052.4141,31.3359 1052.1328,31.0547 Q1051.6406,30.4922 1050.7266,30.1641 Q1049.8125,29.8359 1048.875,29.8359 Q1047.7266,29.8359 1046.7656,30.3281 Q1045.8281,30.8203 1045.0781,31.9453 Q1044.3516,33.0703 1044.3516,34.6172 L1044.3516,36.2578 Q1044.3516,38.1094 1045.6875,39.3516 Q1047.0234,40.5703 1049.4141,40.5703 Q1050.8203,40.5703 1051.8047,40.1953 Q1052.3906,39.9609 1053.0234,39.3047 Q1053.4219,38.9063 1053.6328,38.7891 Q1053.8672,38.6719 1054.1719,38.6719 Q1054.6641,38.6719 1055.0391,39.0703 Q1055.4375,39.4453 1055.4375,39.9609 Q1055.4375,40.4766 1054.9219,41.0859 Q1054.1719,41.9531 1052.9766,42.4453 Q1051.3594,43.125 1049.4141,43.125 Q1047.1406,43.125 1045.3359,42.1875 Q1043.8594,41.4375 1042.8281,39.8438 Q1041.7969,38.2266 1041.7969,36.3047 L1041.7969,34.5703 Q1041.7969,32.5781 1042.7109,30.8672 Q1043.6484,29.1328 1045.2891,28.2188 Q1046.9297,27.2813 1048.7813,27.2813 Q1049.8828,27.2813 1050.8438,27.5391 Q1051.8281,27.7734 1052.6484,28.3125 Z " fill="#53575A"/><text fill="#53575A" font-family="Roboto" font-size="24" font-weight="bold" lengthAdjust="spacing" textLength="280.5" x="1069.5" y="42.7031">VonNeumannArchitecture</text><line style="stroke:#E74C3C;stroke-width:3.0;" x1="1027.5" x2="1353" y1="58.5" y2="58.5"/><line style="stroke:#E74C3C;stroke-width:3.0;" x1="1027.5" x2="1353" y1="70.5" y2="70.5"/></g><!--class CentralProcessingUnit--><g id="elem_CentralProcessingUnit"><rect codeLine="7" fill="#EEEEEE" height="72" id="CentralProcessingUnit" rx="3.75" ry="3.75" style="stroke:#E74C3C;stroke-width:3.0;" width="289.5" x="472.5" y="172.5"/><ellipse cx="495" cy="196.5" fill="#ADD1B2" rx="16.5" ry="16.5" style="stroke:#181818;stroke-width:1.5;"/><path d="M499.1484,190.3125 Q499.3828,189.9844 499.6641,189.8203 Q499.9453,189.6563 500.2734,189.6563 Q500.8359,189.6563 501.1875,190.0547 Q501.5391,190.4297 501.5391,191.3438 L501.5391,193.5234 Q501.5391,194.4375 501.1875,194.8359 Q500.8359,195.2344 500.2734,195.2344 Q499.7578,195.2344 499.4531,194.9297 Q499.1484,194.6484 498.9844,193.875 Q498.9141,193.3359 498.6328,193.0547 Q498.1406,192.4922 497.2266,192.1641 Q496.3125,191.8359 495.375,191.8359 Q494.2266,191.8359 493.2656,192.3281 Q492.3281,192.8203 491.5781,193.9453 Q490.8516,195.0703 490.8516,196.6172 L490.8516,198.2578 Q490.8516,200.1094 492.1875,201.3516 Q493.5234,202.5703 495.9141,202.5703 Q497.3203,202.5703 498.3047,202.1953 Q498.8906,201.9609 499.5234,201.3047 Q499.9219,200.9063 500.1328,200.7891 Q500.3672,200.6719 500.6719,200.6719 Q501.1641,200.6719 501.5391,201.0703 Q501.9375,201.4453 501.9375,201.9609 Q501.9375,202.4766 501.4219,203.0859 Q500.6719,203.9531 499.4766,204.4453 Q497.8594,205.125 495.9141,205.125 Q493.6406,205.125 491.8359,204.1875 Q490.3594,203.4375 489.3281,201.8438 Q488.2969,200.2266 488.2969,198.3047 L488.2969,196.5703 Q488.2969,194.5781 489.2109,192.8672 Q490.1484,191.1328 491.7891,190.2188 Q493.4297,189.2813 495.2813,189.2813 Q496.3828,189.2813 497.3438,189.5391 Q498.3281,189.7734 499.1484,190.3125 Z " fill="#53575A"/><text fill="#53575A" font-family="Roboto" font-size="24" font-weight="bold" lengthAdjust="spacing" textLength="241.5" x="516" y="204.7031">CentralProcessingUnit</text><line style="stroke:#E74C3C;stroke-width:3.0;" x1="474" x2="760.5" y1="220.5" y2="220.5"/><line style="stroke:#E74C3C;stroke-width:3.0;" x1="474" x2="760.5" y1="232.5" y2="232.5"/></g><!--class ControlUnit--><g id="elem_ControlUnit"><rect codeLine="11" fill="#EEEEEE" height="72" id="ControlUnit" rx="3.75" ry="3.75" style="stroke:#E74C3C;stroke-width:3.0;" width="169.5" x="10.5" y="334.5"/><ellipse cx="33" cy="358.5" fill="#ADD1B2" rx="16.5" ry="16.5" style="stroke:#181818;stroke-width:1.5;"/><path d="M37.1484,352.3125 Q37.3828,351.9844 37.6641,351.8203 Q37.9453,351.6563 38.2734,351.6563 Q38.8359,351.6563 39.1875,352.0547 Q39.5391,352.4297 39.5391,353.3438 L39.5391,355.5234 Q39.5391,356.4375 39.1875,356.8359 Q38.8359,357.2344 38.2734,357.2344 Q37.7578,357.2344 37.4531,356.9297 Q37.1484,356.6484 36.9844,355.875 Q36.9141,355.3359 36.6328,355.0547 Q36.1406,354.4922 35.2266,354.1641 Q34.3125,353.8359 33.375,353.8359 Q32.2266,353.8359 31.2656,354.3281 Q30.3281,354.8203 29.5781,355.9453 Q28.8516,357.0703 28.8516,358.6172 L28.8516,360.2578 Q28.8516,362.1094 30.1875,363.3516 Q31.5234,364.5703 33.9141,364.5703 Q35.3203,364.5703 36.3047,364.1953 Q36.8906,363.9609 37.5234,363.3047 Q37.9219,362.9063 38.1328,362.7891 Q38.3672,362.6719 38.6719,362.6719 Q39.1641,362.6719 39.5391,363.0703 Q39.9375,363.4453 39.9375,363.9609 Q39.9375,364.4766 39.4219,365.0859 Q38.6719,365.9531 37.4766,366.4453 Q35.8594,367.125 33.9141,367.125 Q31.6406,367.125 29.8359,366.1875 Q28.3594,365.4375 27.3281,363.8438 Q26.2969,362.2266 26.2969,360.3047 L26.2969,358.5703 Q26.2969,356.5781 27.2109,354.8672 Q28.1484,353.1328 29.7891,352.2188 Q31.4297,351.2813 33.2813,351.2813 Q34.3828,351.2813 35.3438,351.5391 Q36.3281,351.7734 37.1484,352.3125 Z " fill="#53575A"/><text fill="#53575A" font-family="Roboto" font-size="24" font-weight="bold" lengthAdjust="spacing" textLength="121.5" x="54" y="366.7031">ControlUnit</text><line style="stroke:#E74C3C;stroke-width:3.0;" x1="12" x2="178.5" y1="382.5" y2="382.5"/><line style="stroke:#E74C3C;stroke-width:3.0;" x1="12" x2="178.5" y1="394.5" y2="394.5"/></g><!--class ArithmeticLogicUnit--><g id="elem_ArithmeticLogicUnit"><rect codeLine="15" fill="#EEEEEE" height="72" id="ArithmeticLogicUnit" rx="3.75" ry="3.75" style="stroke:#E74C3C;stroke-width:3.0;" width="262.5" x="232.5" y="334.5"/><ellipse cx="255" cy="358.5" fill="#ADD1B2" rx="16.5" ry="16.5" style="stroke:#181818;stroke-width:1.5;"/><path d="M259.1484,352.3125 Q259.3828,351.9844 259.6641,351.8203 Q259.9453,351.6563 260.2734,351.6563 Q260.8359,351.6563 261.1875,352.0547 Q261.5391,352.4297 261.5391,353.3438 L261.5391,355.5234 Q261.5391,356.4375 261.1875,356.8359 Q260.8359,357.2344 260.2734,357.2344 Q259.7578,357.2344 259.4531,356.9297 Q259.1484,356.6484 258.9844,355.875 Q258.9141,355.3359 258.6328,355.0547 Q258.1406,354.4922 257.2266,354.1641 Q256.3125,353.8359 255.375,353.8359 Q254.2266,353.8359 253.2656,354.3281 Q252.3281,354.8203 251.5781,355.9453 Q250.8516,357.0703 250.8516,358.6172 L250.8516,360.2578 Q250.8516,362.1094 252.1875,363.3516 Q253.5234,364.5703 255.9141,364.5703 Q257.3203,364.5703 258.3047,364.1953 Q258.8906,363.9609 259.5234,363.3047 Q259.9219,362.9063 260.1328,362.7891 Q260.3672,362.6719 260.6719,362.6719 Q261.1641,362.6719 261.5391,363.0703 Q261.9375,363.4453 261.9375,363.9609 Q261.9375,364.4766 261.4219,365.0859 Q260.6719,365.9531 259.4766,366.4453 Q257.8594,367.125 255.9141,367.125 Q253.6406,367.125 251.8359,366.1875 Q250.3594,365.4375 249.3281,363.8438 Q248.2969,362.2266 248.2969,360.3047 L248.2969,358.5703 Q248.2969,356.5781 249.2109,354.8672 Q250.1484,353.1328 251.7891,352.2188 Q253.4297,351.2813 255.2813,351.2813 Q256.3828,351.2813 257.3438,351.5391 Q258.3281,351.7734 259.1484,352.3125 Z " fill="#53575A"/><text fill="#53575A" font-family="Roboto" font-size="24" font-weight="bold" lengthAdjust="spacing" textLength="214.5" x="276" y="366.7031">ArithmeticLogicUnit</text><line style="stroke:#E74C3C;stroke-width:3.0;" x1="234" x2="493.5" y1="382.5" y2="382.5"/><line style="stroke:#E74C3C;stroke-width:3.0;" x1="234" x2="493.5" y1="394.5" y2="394.5"/></g><!--class Register--><g id="elem_Register"><rect codeLine="19" fill="#EEEEEE" height="72" id="Register" rx="3.75" ry="3.75" style="stroke:#E74C3C;stroke-width:3.0;" width="138" x="548.25" y="334.5"/><ellipse cx="570.75" cy="358.5" fill="#ADD1B2" rx="16.5" ry="16.5" style="stroke:#181818;stroke-width:1.5;"/><path d="M574.8984,352.3125 Q575.1328,351.9844 575.4141,351.8203 Q575.6953,351.6563 576.0234,351.6563 Q576.5859,351.6563 576.9375,352.0547 Q577.2891,352.4297 577.2891,353.3438 L577.2891,355.5234 Q577.2891,356.4375 576.9375,356.8359 Q576.5859,357.2344 576.0234,357.2344 Q575.5078,357.2344 575.2031,356.9297 Q574.8984,356.6484 574.7344,355.875 Q574.6641,355.3359 574.3828,355.0547 Q573.8906,354.4922 572.9766,354.1641 Q572.0625,353.8359 571.125,353.8359 Q569.9766,353.8359 569.0156,354.3281 Q568.0781,354.8203 567.3281,355.9453 Q566.6016,357.0703 566.6016,358.6172 L566.6016,360.2578 Q566.6016,362.1094 567.9375,363.3516 Q569.2734,364.5703 571.6641,364.5703 Q573.0703,364.5703 574.0547,364.1953 Q574.6406,363.9609 575.2734,363.3047 Q575.6719,362.9063 575.8828,362.7891 Q576.1172,362.6719 576.4219,362.6719 Q576.9141,362.6719 577.2891,363.0703 Q577.6875,363.4453 577.6875,363.9609 Q577.6875,364.4766 577.1719,365.0859 Q576.4219,365.9531 575.2266,366.4453 Q573.6094,367.125 571.6641,367.125 Q569.3906,367.125 567.5859,366.1875 Q566.1094,365.4375 565.0781,363.8438 Q564.0469,362.2266 564.0469,360.3047 L564.0469,358.5703 Q564.0469,356.5781 564.9609,354.8672 Q565.8984,353.1328 567.5391,352.2188 Q569.1797,351.2813 571.0313,351.2813 Q572.1328,351.2813 573.0938,351.5391 Q574.0781,351.7734 574.8984,352.3125 Z " fill="#53575A"/><text fill="#53575A" font-family="Roboto" font-size="24" font-weight="bold" lengthAdjust="spacing" textLength="90" x="591.75" y="366.7031">Register</text><line style="stroke:#E74C3C;stroke-width:3.0;" x1="549.75" x2="684.75" y1="382.5" y2="382.5"/><line style="stroke:#E74C3C;stroke-width:3.0;" x1="549.75" x2="684.75" y1="394.5" y2="394.5"/></g><!--class Storage--><g id="elem_Storage"><rect codeLine="23" fill="#EEEEEE" height="72" id="Storage" rx="3.75" ry="3.75" style="stroke:#E74C3C;stroke-width:3.0;" width="133.5" x="1020" y="172.5"/><ellipse cx="1042.5" cy="196.5" fill="#ADD1B2" rx="16.5" ry="16.5" style="stroke:#181818;stroke-width:1.5;"/><path d="M1046.6484,190.3125 Q1046.8828,189.9844 1047.1641,189.8203 Q1047.4453,189.6563 1047.7734,189.6563 Q1048.3359,189.6563 1048.6875,190.0547 Q1049.0391,190.4297 1049.0391,191.3438 L1049.0391,193.5234 Q1049.0391,194.4375 1048.6875,194.8359 Q1048.3359,195.2344 1047.7734,195.2344 Q1047.2578,195.2344 1046.9531,194.9297 Q1046.6484,194.6484 1046.4844,193.875 Q1046.4141,193.3359 1046.1328,193.0547 Q1045.6406,192.4922 1044.7266,192.1641 Q1043.8125,191.8359 1042.875,191.8359 Q1041.7266,191.8359 1040.7656,192.3281 Q1039.8281,192.8203 1039.0781,193.9453 Q1038.3516,195.0703 1038.3516,196.6172 L1038.3516,198.2578 Q1038.3516,200.1094 1039.6875,201.3516 Q1041.0234,202.5703 1043.4141,202.5703 Q1044.8203,202.5703 1045.8047,202.1953 Q1046.3906,201.9609 1047.0234,201.3047 Q1047.4219,200.9063 1047.6328,200.7891 Q1047.8672,200.6719 1048.1719,200.6719 Q1048.6641,200.6719 1049.0391,201.0703 Q1049.4375,201.4453 1049.4375,201.9609 Q1049.4375,202.4766 1048.9219,203.0859 Q1048.1719,203.9531 1046.9766,204.4453 Q1045.3594,205.125 1043.4141,205.125 Q1041.1406,205.125 1039.3359,204.1875 Q1037.8594,203.4375 1036.8281,201.8438 Q1035.7969,200.2266 1035.7969,198.3047 L1035.7969,196.5703 Q1035.7969,194.5781 1036.7109,192.8672 Q1037.6484,191.1328 1039.2891,190.2188 Q1040.9297,189.2813 1042.7813,189.2813 Q1043.8828,189.2813 1044.8438,189.5391 Q1045.8281,189.7734 1046.6484,190.3125 Z " fill="#53575A"/><text fill="#53575A" font-family="Roboto" font-size="24" font-weight="bold" lengthAdjust="spacing" textLength="85.5" x="1063.5" y="204.7031">Storage</text><line style="stroke:#E74C3C;stroke-width:3.0;" x1="1021.5" x2="1152" y1="220.5" y2="220.5"/><line style="stroke:#E74C3C;stroke-width:3.0;" x1="1021.5" x2="1152" y1="232.5" y2="232.5"/></g><!--class MainMemory--><g id="elem_MainMemory"><rect codeLine="27" fill="#EEEEEE" height="72" id="MainMemory" rx="3.75" ry="3.75" style="stroke:#E74C3C;stroke-width:3.0;" width="192" x="845.25" y="334.5"/><ellipse cx="867.75" cy="358.5" fill="#ADD1B2" rx="16.5" ry="16.5" style="stroke:#181818;stroke-width:1.5;"/><path d="M871.8984,352.3125 Q872.1328,351.9844 872.4141,351.8203 Q872.6953,351.6563 873.0234,351.6563 Q873.5859,351.6563 873.9375,352.0547 Q874.2891,352.4297 874.2891,353.3438 L874.2891,355.5234 Q874.2891,356.4375 873.9375,356.8359 Q873.5859,357.2344 873.0234,357.2344 Q872.5078,357.2344 872.2031,356.9297 Q871.8984,356.6484 871.7344,355.875 Q871.6641,355.3359 871.3828,355.0547 Q870.8906,354.4922 869.9766,354.1641 Q869.0625,353.8359 868.125,353.8359 Q866.9766,353.8359 866.0156,354.3281 Q865.0781,354.8203 864.3281,355.9453 Q863.6016,357.0703 863.6016,358.6172 L863.6016,360.2578 Q863.6016,362.1094 864.9375,363.3516 Q866.2734,364.5703 868.6641,364.5703 Q870.0703,364.5703 871.0547,364.1953 Q871.6406,363.9609 872.2734,363.3047 Q872.6719,362.9063 872.8828,362.7891 Q873.1172,362.6719 873.4219,362.6719 Q873.9141,362.6719 874.2891,363.0703 Q874.6875,363.4453 874.6875,363.9609 Q874.6875,364.4766 874.1719,365.0859 Q873.4219,365.9531 872.2266,366.4453 Q870.6094,367.125 868.6641,367.125 Q866.3906,367.125 864.5859,366.1875 Q863.1094,365.4375 862.0781,363.8438 Q861.0469,362.2266 861.0469,360.3047 L861.0469,358.5703 Q861.0469,356.5781 861.9609,354.8672 Q862.8984,353.1328 864.5391,352.2188 Q866.1797,351.2813 868.0313,351.2813 Q869.1328,351.2813 870.0938,351.5391 Q871.0781,351.7734 871.8984,352.3125 Z " fill="#53575A"/><text fill="#53575A" font-family="Roboto" font-size="24" font-weight="bold" lengthAdjust="spacing" textLength="144" x="888.75" y="366.7031">MainMemory</text><line style="stroke:#E74C3C;stroke-width:3.0;" x1="846.75" x2="1035.75" y1="382.5" y2="382.5"/><line style="stroke:#E74C3C;stroke-width:3.0;" x1="846.75" x2="1035.75" y1="394.5" y2="394.5"/></g><!--class SecondaryMemory--><g id="elem_SecondaryMemory"><rect codeLine="31" fill="#EEEEEE" height="72" id="SecondaryMemory" rx="3.75" ry="3.75" style="stroke:#E74C3C;stroke-width:3.0;" width="253.5" x="1090.5" y="334.5"/><ellipse cx="1113" cy="358.5" fill="#ADD1B2" rx="16.5" ry="16.5" style="stroke:#181818;stroke-width:1.5;"/><path d="M1117.1484,352.3125 Q1117.3828,351.9844 1117.6641,351.8203 Q1117.9453,351.6563 1118.2734,351.6563 Q1118.8359,351.6563 1119.1875,352.0547 Q1119.5391,352.4297 1119.5391,353.3438 L1119.5391,355.5234 Q1119.5391,356.4375 1119.1875,356.8359 Q1118.8359,357.2344 1118.2734,357.2344 Q1117.7578,357.2344 1117.4531,356.9297 Q1117.1484,356.6484 1116.9844,355.875 Q1116.9141,355.3359 1116.6328,355.0547 Q1116.1406,354.4922 1115.2266,354.1641 Q1114.3125,353.8359 1113.375,353.8359 Q1112.2266,353.8359 1111.2656,354.3281 Q1110.3281,354.8203 1109.5781,355.9453 Q1108.8516,357.0703 1108.8516,358.6172 L1108.8516,360.2578 Q1108.8516,362.1094 1110.1875,363.3516 Q1111.5234,364.5703 1113.9141,364.5703 Q1115.3203,364.5703 1116.3047,364.1953 Q1116.8906,363.9609 1117.5234,363.3047 Q1117.9219,362.9063 1118.1328,362.7891 Q1118.3672,362.6719 1118.6719,362.6719 Q1119.1641,362.6719 1119.5391,363.0703 Q1119.9375,363.4453 1119.9375,363.9609 Q1119.9375,364.4766 1119.4219,365.0859 Q1118.6719,365.9531 1117.4766,366.4453 Q1115.8594,367.125 1113.9141,367.125 Q1111.6406,367.125 1109.8359,366.1875 Q1108.3594,365.4375 1107.3281,363.8438 Q1106.2969,362.2266 1106.2969,360.3047 L1106.2969,358.5703 Q1106.2969,356.5781 1107.2109,354.8672 Q1108.1484,353.1328 1109.7891,352.2188 Q1111.4297,351.2813 1113.2813,351.2813 Q1114.3828,351.2813 1115.3438,351.5391 Q1116.3281,351.7734 1117.1484,352.3125 Z " fill="#53575A"/><text fill="#53575A" font-family="Roboto" font-size="24" font-weight="bold" lengthAdjust="spacing" textLength="205.5" x="1134" y="366.7031">SecondaryMemory</text><line style="stroke:#E74C3C;stroke-width:3.0;" x1="1092" x2="1342.5" y1="382.5" y2="382.5"/><line style="stroke:#E74C3C;stroke-width:3.0;" x1="1092" x2="1342.5" y1="394.5" y2="394.5"/></g><!--class Bus--><g id="elem_Bus"><rect codeLine="35" fill="#EEEEEE" height="72" id="Bus" rx="3.75" ry="3.75" style="stroke:#E74C3C;stroke-width:3.0;" width="88.5" x="1173" y="496.5"/><ellipse cx="1195.5" cy="520.5" fill="#ADD1B2" rx="16.5" ry="16.5" style="stroke:#181818;stroke-width:1.5;"/><path d="M1199.6484,514.3125 Q1199.8828,513.9844 1200.1641,513.8203 Q1200.4453,513.6563 1200.7734,513.6563 Q1201.3359,513.6563 1201.6875,514.0547 Q1202.0391,514.4297 1202.0391,515.3438 L1202.0391,517.5234 Q1202.0391,518.4375 1201.6875,518.8359 Q1201.3359,519.2344 1200.7734,519.2344 Q1200.2578,519.2344 1199.9531,518.9297 Q1199.6484,518.6484 1199.4844,517.875 Q1199.4141,517.3359 1199.1328,517.0547 Q1198.6406,516.4922 1197.7266,516.1641 Q1196.8125,515.8359 1195.875,515.8359 Q1194.7266,515.8359 1193.7656,516.3281 Q1192.8281,516.8203 1192.0781,517.9453 Q1191.3516,519.0703 1191.3516,520.6172 L1191.3516,522.2578 Q1191.3516,524.1094 1192.6875,525.3516 Q1194.0234,526.5703 1196.4141,526.5703 Q1197.8203,526.5703 1198.8047,526.1953 Q1199.3906,525.9609 1200.0234,525.3047 Q1200.4219,524.9063 1200.6328,524.7891 Q1200.8672,524.6719 1201.1719,524.6719 Q1201.6641,524.6719 1202.0391,525.0703 Q1202.4375,525.4453 1202.4375,525.9609 Q1202.4375,526.4766 1201.9219,527.0859 Q1201.1719,527.9531 1199.9766,528.4453 Q1198.3594,529.125 1196.4141,529.125 Q1194.1406,529.125 1192.3359,528.1875 Q1190.8594,527.4375 1189.8281,525.8438 Q1188.7969,524.2266 1188.7969,522.3047 L1188.7969,520.5703 Q1188.7969,518.5781 1189.7109,516.8672 Q1190.6484,515.1328 1192.2891,514.2188 Q1193.9297,513.2813 1195.7813,513.2813 Q1196.8828,513.2813 1197.8438,513.5391 Q1198.8281,513.7734 1199.6484,514.3125 Z " fill="#53575A"/><text fill="#53575A" font-family="Roboto" font-size="24" font-weight="bold" lengthAdjust="spacing" textLength="40.5" x="1216.5" y="528.7031">Bus</text><line style="stroke:#E74C3C;stroke-width:3.0;" x1="1174.5" x2="1260" y1="544.5" y2="544.5"/><line style="stroke:#E74C3C;stroke-width:3.0;" x1="1174.5" x2="1260" y1="556.5" y2="556.5"/></g><!--class InputDevice--><g id="elem_InputDevice"><rect codeLine="39" fill="#EEEEEE" height="72" id="InputDevice" rx="3.75" ry="3.75" style="stroke:#E74C3C;stroke-width:3.0;" width="175.5" x="1206" y="172.5"/><ellipse cx="1228.5" cy="196.5" fill="#ADD1B2" rx="16.5" ry="16.5" style="stroke:#181818;stroke-width:1.5;"/><path d="M1232.6484,190.3125 Q1232.8828,189.9844 1233.1641,189.8203 Q1233.4453,189.6563 1233.7734,189.6563 Q1234.3359,189.6563 1234.6875,190.0547 Q1235.0391,190.4297 1235.0391,191.3438 L1235.0391,193.5234 Q1235.0391,194.4375 1234.6875,194.8359 Q1234.3359,195.2344 1233.7734,195.2344 Q1233.2578,195.2344 1232.9531,194.9297 Q1232.6484,194.6484 1232.4844,193.875 Q1232.4141,193.3359 1232.1328,193.0547 Q1231.6406,192.4922 1230.7266,192.1641 Q1229.8125,191.8359 1228.875,191.8359 Q1227.7266,191.8359 1226.7656,192.3281 Q1225.8281,192.8203 1225.0781,193.9453 Q1224.3516,195.0703 1224.3516,196.6172 L1224.3516,198.2578 Q1224.3516,200.1094 1225.6875,201.3516 Q1227.0234,202.5703 1229.4141,202.5703 Q1230.8203,202.5703 1231.8047,202.1953 Q1232.3906,201.9609 1233.0234,201.3047 Q1233.4219,200.9063 1233.6328,200.7891 Q1233.8672,200.6719 1234.1719,200.6719 Q1234.6641,200.6719 1235.0391,201.0703 Q1235.4375,201.4453 1235.4375,201.9609 Q1235.4375,202.4766 1234.9219,203.0859 Q1234.1719,203.9531 1232.9766,204.4453 Q1231.3594,205.125 1229.4141,205.125 Q1227.1406,205.125 1225.3359,204.1875 Q1223.8594,203.4375 1222.8281,201.8438 Q1221.7969,200.2266 1221.7969,198.3047 L1221.7969,196.5703 Q1221.7969,194.5781 1222.7109,192.8672 Q1223.6484,191.1328 1225.2891,190.2188 Q1226.9297,189.2813 1228.7813,189.2813 Q1229.8828,189.2813 1230.8438,189.5391 Q1231.8281,189.7734 1232.6484,190.3125 Z " fill="#53575A"/><text fill="#53575A" font-family="Roboto" font-size="24" font-weight="bold" lengthAdjust="spacing" textLength="127.5" x="1249.5" y="204.7031">InputDevice</text><line style="stroke:#E74C3C;stroke-width:3.0;" x1="1207.5" x2="1380" y1="220.5" y2="220.5"/><line style="stroke:#E74C3C;stroke-width:3.0;" x1="1207.5" x2="1380" y1="232.5" y2="232.5"/></g><!--class OutputDevice--><g id="elem_OutputDevice"><rect codeLine="51" fill="#EEEEEE" height="72" id="OutputDevice" rx="3.75" ry="3.75" style="stroke:#E74C3C;stroke-width:3.0;" width="192" x="1434.75" y="172.5"/><ellipse cx="1457.25" cy="196.5" fill="#ADD1B2" rx="16.5" ry="16.5" style="stroke:#181818;stroke-width:1.5;"/><path d="M1461.3984,190.3125 Q1461.6328,189.9844 1461.9141,189.8203 Q1462.1953,189.6563 1462.5234,189.6563 Q1463.0859,189.6563 1463.4375,190.0547 Q1463.7891,190.4297 1463.7891,191.3438 L1463.7891,193.5234 Q1463.7891,194.4375 1463.4375,194.8359 Q1463.0859,195.2344 1462.5234,195.2344 Q1462.0078,195.2344 1461.7031,194.9297 Q1461.3984,194.6484 1461.2344,193.875 Q1461.1641,193.3359 1460.8828,193.0547 Q1460.3906,192.4922 1459.4766,192.1641 Q1458.5625,191.8359 1457.625,191.8359 Q1456.4766,191.8359 1455.5156,192.3281 Q1454.5781,192.8203 1453.8281,193.9453 Q1453.1016,195.0703 1453.1016,196.6172 L1453.1016,198.2578 Q1453.1016,200.1094 1454.4375,201.3516 Q1455.7734,202.5703 1458.1641,202.5703 Q1459.5703,202.5703 1460.5547,202.1953 Q1461.1406,201.9609 1461.7734,201.3047 Q1462.1719,200.9063 1462.3828,200.7891 Q1462.6172,200.6719 1462.9219,200.6719 Q1463.4141,200.6719 1463.7891,201.0703 Q1464.1875,201.4453 1464.1875,201.9609 Q1464.1875,202.4766 1463.6719,203.0859 Q1462.9219,203.9531 1461.7266,204.4453 Q1460.1094,205.125 1458.1641,205.125 Q1455.8906,205.125 1454.0859,204.1875 Q1452.6094,203.4375 1451.5781,201.8438 Q1450.5469,200.2266 1450.5469,198.3047 L1450.5469,196.5703 Q1450.5469,194.5781 1451.4609,192.8672 Q1452.3984,191.1328 1454.0391,190.2188 Q1455.6797,189.2813 1457.5313,189.2813 Q1458.6328,189.2813 1459.5938,189.5391 Q1460.5781,189.7734 1461.3984,190.3125 Z " fill="#53575A"/><text fill="#53575A" font-family="Roboto" font-size="24" font-weight="bold" lengthAdjust="spacing" textLength="144" x="1478.25" y="204.7031">OutputDevice</text><line style="stroke:#E74C3C;stroke-width:3.0;" x1="1436.25" x2="1625.25" y1="220.5" y2="220.5"/><line style="stroke:#E74C3C;stroke-width:3.0;" x1="1436.25" x2="1625.25" y1="232.5" y2="232.5"/></g><!--link VonNeumannArchitecture to CentralProcessingUnit--><g id="link_VonNeumannArchitecture_CentralProcessingUnit"><path codeLine="64" d="M1048.5705,87.3134 C952.6305,113.9384 846.5123,143.3784 750.5123,170.0184 " fill="none" id="VonNeumannArchitecture-CentralProcessingUnit" style="stroke:#53575A;stroke-width:3.0;"/><polygon fill="#53575A" points="1065.915,82.5,1055.6383,79.1252,1048.5705,87.3134,1058.8472,90.6882,1065.915,82.5" style="stroke:#53575A;stroke-width:3.0;"/><polygon fill="#53575A" points="741.84,172.425,756.4528,174.5967,749.0669,170.4195,753.2441,163.0336,741.84,172.425" style="stroke:#53575A;stroke-width:3.0;"/></g><!--link VonNeumannArchitecture to Storage--><g id="link_VonNeumannArchitecture_Storage"><path codeLine="65" d="M1157.9726,97.5838 C1140.7226,124.0738 1131.7556,137.8677 1114.4306,164.4777 " fill="none" id="VonNeumannArchitecture-Storage" style="stroke:#53575A;stroke-width:3.0;"/><polygon fill="#53575A" points="1167.795,82.5,1157.8559,86.7678,1157.9726,97.5838,1167.9117,93.316,1167.795,82.5" style="stroke:#53575A;stroke-width:3.0;"/><polygon fill="#53575A" points="1109.52,172.02,1121.9141,163.9803,1113.6121,165.7348,1111.8577,157.4328,1109.52,172.02" style="stroke:#53575A;stroke-width:3.0;"/></g><!--link VonNeumannArchitecture to InputDevice--><g id="link_VonNeumannArchitecture_InputDevice"><path codeLine="66" d="M1222.5274,97.5838 C1239.7774,124.0738 1248.7444,137.8677 1266.0694,164.4777 " fill="none" id="VonNeumannArchitecture-InputDevice" style="stroke:#53575A;stroke-width:3.0;"/><polygon fill="#53575A" points="1212.705,82.5,1212.5883,93.316,1222.5274,97.5838,1222.6441,86.7678,1212.705,82.5" style="stroke:#53575A;stroke-width:3.0;"/><polygon fill="#53575A" points="1270.98,172.02,1268.6423,157.4328,1266.8879,165.7348,1258.5859,163.9803,1270.98,172.02" style="stroke:#53575A;stroke-width:3.0;"/></g><!--link VonNeumannArchitecture to OutputDevice--><g id="link_VonNeumannArchitecture_OutputDevice"><path codeLine="67" d="M1280.4489,90.1171 C1337.3589,116.6971 1391.24,141.8577 1448.27,168.4827 " fill="none" id="VonNeumannArchitecture-OutputDevice" style="stroke:#53575A;stroke-width:3.0;"/><polygon fill="#53575A" points="1264.14,82.5,1269.7554,91.7449,1280.4489,90.1171,1274.8335,80.8723,1264.14,82.5" style="stroke:#53575A;stroke-width:3.0;"/><polygon fill="#53575A" points="1456.425,172.29,1446.7306,161.1424,1449.6291,169.1173,1441.6543,172.0158,1456.425,172.29" style="stroke:#53575A;stroke-width:3.0;"/></g><!--link CentralProcessingUnit to ControlUnit--><g id="link_CentralProcessingUnit_ControlUnit"><path codeLine="69" d="M485.2366,249.727 C402.7666,274.597 306.21,303.825 206.25,334.5 C197.76,337.11 197.5088,337.183 188.6738,339.913 " fill="none" id="CentralProcessingUnit-ControlUnit" style="stroke:#53575A;stroke-width:3.0;"/><polygon fill="#53575A" points="502.47,244.53,492.121,241.384,485.2366,249.727,495.5856,252.873,502.47,244.53" style="stroke:#53575A;stroke-width:3.0;"/><polygon fill="#53575A" points="180.075,342.57,194.7446,344.317,187.2407,340.3558,191.2019,332.8519,180.075,342.57" style="stroke:#53575A;stroke-width:3.0;"/></g><!--link CentralProcessingUnit to ArithmeticLogicUnit--><g id="link_CentralProcessingUnit_ArithmeticLogicUnit"><path codeLine="70" d="M546.9965,254.0647 C504.6215,280.6447 469.1752,302.8841 426.7102,329.5091 " fill="none" id="CentralProcessingUnit-ArithmeticLogicUnit" style="stroke:#53575A;stroke-width:3.0;"/><polygon fill="#53575A" points="562.245,244.5,551.4325,244.1995,546.9965,254.0647,557.809,254.3652,562.245,244.5" style="stroke:#53575A;stroke-width:3.0;"/><polygon fill="#53575A" points="419.085,334.29,433.71,332.2021,425.4393,330.3059,427.3355,322.0352,419.085,334.29" style="stroke:#53575A;stroke-width:3.0;"/></g><!--link CentralProcessingUnit to Register--><g id="link_CentralProcessingUnit_Register"><path codeLine="71" d="M617.25,262.5 C617.25,288.99 617.25,298.41 617.25,325.02 " fill="none" id="CentralProcessingUnit-Register" style="stroke:#53575A;stroke-width:3.0;"/><polygon fill="#53575A" points="617.25,244.5,611.25,253.5,617.25,262.5,623.25,253.5,617.25,244.5" style="stroke:#53575A;stroke-width:3.0;"/><polygon fill="#53575A" points="617.25,334.02,623.25,320.52,617.25,326.52,611.25,320.52,617.25,334.02" style="stroke:#53575A;stroke-width:3.0;"/><text fill="#88992E" font-family="Roboto" font-size="15" font-weight="bold" lengthAdjust="spacing" textLength="25.5" x="588.1641" y="319.0073">1..*</text></g><!--link Storage to MainMemory--><g id="link_Storage_MainMemory"><path codeLine="73" d="M1043.0235,257.7794 C1018.7835,284.2694 1003.6801,300.7697 979.3351,327.3797 " fill="none" id="Storage-MainMemory" style="stroke:#53575A;stroke-width:3.0;"/><polygon fill="none" points="1055.175,244.5,1044.6728,247.0892,1043.0235,257.7794,1053.5257,255.1902,1055.175,244.5" style="stroke:#53575A;stroke-width:3.0;"/><polygon fill="#53575A" points="973.26,334.02,986.7995,328.1096,978.3226,328.4864,977.9458,320.0095,973.26,334.02" style="stroke:#53575A;stroke-width:3.0;"/></g><!--link Storage to SecondaryMemory--><g id="link_Storage_SecondaryMemory"><path codeLine="74" d="M1126.4876,258.4154 C1148.2226,284.9054 1160.9902,300.4531 1182.8302,327.0631 " fill="none" id="Storage-SecondaryMemory" style="stroke:#53575A;stroke-width:3.0;"/><polygon fill="none" points="1115.07,244.5,1116.1403,255.2636,1126.4876,258.4154,1125.4173,247.6519,1115.07,244.5" style="stroke:#53575A;stroke-width:3.0;"/><polygon fill="#53575A" points="1188.54,334.02,1184.6132,319.7782,1183.7818,328.2226,1175.3374,327.3912,1188.54,334.02" style="stroke:#53575A;stroke-width:3.0;"/></g><!--link CentralProcessingUnit to Bus--><g id="link_CentralProcessingUnit_Bus"><path codeLine="82" d="M643.77,244.545 C679.065,288.27 745.56,363.09 818.25,406.5 C935.385,476.43 1086.7921,509.2588 1163.6821,522.5788 " fill="none" id="CentralProcessingUnit-to-Bus" style="stroke:#53575A;stroke-width:3.0;stroke-dasharray:7.0,7.0;"/><polygon fill="#53575A" points="1172.55,524.115,1160.2723,515.8987,1165.1601,522.8348,1158.224,527.7226,1172.55,524.115" style="stroke:#53575A;stroke-width:3.0;"/><text fill="#88992E" font-family="Roboto" font-size="15" font-weight="bold" lengthAdjust="spacing" textLength="25.5" x="1135.2009" y="518.2112">1..*</text></g><!--link MainMemory to Bus--><g id="link_MainMemory_Bus"><path codeLine="83" d="M1001.145,406.5 C1052.82,436.275 1118.5074,474.1108 1165.0674,500.9458 " fill="none" id="MainMemory-to-Bus" style="stroke:#53575A;stroke-width:3.0;stroke-dasharray:7.0,7.0;"/><polygon fill="#53575A" points="1172.865,505.44,1164.1647,493.5004,1166.367,501.6949,1158.1725,503.8971,1172.865,505.44" style="stroke:#53575A;stroke-width:3.0;"/><text fill="#88992E" font-family="Roboto" font-size="15" font-weight="bold" lengthAdjust="spacing" textLength="25.5" x="1135.5809" y="495.6845">1..*</text></g><!--link SecondaryMemory to Bus--><g id="link_SecondaryMemory_Bus"><path codeLine="84" d="M1217.25,406.5 C1217.25,432.99 1217.25,460.41 1217.25,487.02 " fill="none" id="SecondaryMemory-to-Bus" style="stroke:#53575A;stroke-width:3.0;stroke-dasharray:7.0,7.0;"/><polygon fill="#53575A" points="1217.25,496.02,1223.25,482.52,1217.25,488.52,1211.25,482.52,1217.25,496.02" style="stroke:#53575A;stroke-width:3.0;"/><text fill="#88992E" font-family="Roboto" font-size="15" font-weight="bold" lengthAdjust="spacing" textLength="25.5" x="1188.1641" y="481.0073">1..*</text></g><!--link OutputDevice to Bus--><g id="link_OutputDevice_Bus"><path codeLine="86" d="M1516.275,244.5 C1497.39,286.5 1461.09,357.825 1413.75,406.5 C1369.125,452.385 1312.4832,485.1619 1269.6732,506.5219 " fill="none" id="OutputDevice-to-Bus" style="stroke:#53575A;stroke-width:3.0;stroke-dasharray:7.0,7.0;"/><polygon fill="#53575A" points="1261.62,510.54,1276.3786,509.8816,1268.331,507.1915,1271.0211,499.144,1261.62,510.54" style="stroke:#53575A;stroke-width:3.0;"/><text fill="#88992E" font-family="Roboto" font-size="15" font-weight="bold" lengthAdjust="spacing" textLength="25.5" x="1483.4583" y="270.4531">1..*</text><text fill="#88992E" font-family="Roboto" font-size="15" font-weight="bold" lengthAdjust="spacing" textLength="25.5" x="1273.401" y="521.7395">1..*</text></g><!--link InputDevice to Bus--><g id="link_InputDevice_Bus"><path codeLine="87" d="M1324.575,244.71 C1355.955,284.49 1396.5,351.285 1370.25,406.5 C1348.05,453.195 1306.6337,483.6903 1269.9737,504.4803 " fill="none" id="InputDevice-to-Bus" style="stroke:#53575A;stroke-width:3.0;stroke-dasharray:7.0,7.0;"/><polygon fill="#53575A" points="1262.145,508.92,1276.8479,507.4796,1268.6689,505.2203,1270.9283,497.0413,1262.145,508.92" style="stroke:#53575A;stroke-width:3.0;"/><text fill="#88992E" font-family="Roboto" font-size="15" font-weight="bold" lengthAdjust="spacing" textLength="25.5" x="1303.7067" y="270.157">1..*</text><text fill="#88992E" font-family="Roboto" font-size="15" font-weight="bold" lengthAdjust="spacing" textLength="25.5" x="1273.4939" y="500.1756">1..*</text></g><rect fill="#DDDDDD" height="54.6094" id="_legend" rx="3.75" ry="3.75" style="stroke:#53575A;stroke-width:1.5;" width="468" x="574.125" y="622.5"/><text fill="#53575A" font-family="Roboto" font-size="21" lengthAdjust="spacing" textLength="438" x="589.125" y="656.9824">Domain Model : The Von Neumann Architecture</text><text fill="#53575A" font-family="Roboto" font-size="21" lengthAdjust="spacing" textLength="310.5" x="652.875" y="737.0918">M&#225;ster en Ingenier&#237;a del Software</text><text fill="#53575A" font-family="Roboto" font-size="15" lengthAdjust="spacing" textLength="61.5" x="777.375" y="759.1348">escuela.it</text><!--SRC=[KypCIyufJKbLqDFJJqeiJjM7ylKAIdDpk1HXikb5cIbeGiavYSN5gSKGKG00]--></g></svg>