<?xml version="1.0" encoding="us-ascii" standalone="no"?><svg xmlns="http://www.w3.org/2000/svg" xmlns:xlink="http://www.w3.org/1999/xlink" contentStyleType="text/css" height="795px" preserveAspectRatio="none" style="width:1636px;height:795px;background:#FFFFFF;" version="1.1" viewBox="0 0 1636 795" width="1636.5px" zoomAndPan="magnify"><defs><style type="text/css">@import url('https://fonts.googleapis.com/css?family=Roboto:400,100,100italic,300,300italic,400italic,500,500italic,700,700italic,900,900italic');</style></defs><g><text fill="#53575A" font-family="Roboto" font-size="18" lengthAdjust="spacing" textLength="414" x="601.125" y="31.6992">EscuelaIT - Curso de Modelado Orientado a Objetos</text><!--class VonNeumannArchitecture--><g id="elem_VonNeumannArchitecture"><rect codeLine="3" fill="#EEEEEE" height="72" id="VonNeumannArchitecture" rx="3.75" ry="3.75" style="stroke:#E74C3C;stroke-width:3.0;" width="328.5" x="1026" y="93.0938"/><ellipse cx="1048.5" cy="117.0938" fill="#ADD1B2" rx="16.5" ry="16.5" style="stroke:#181818;stroke-width:1.5;"/><path d="M1052.6484,110.9063 Q1052.8828,110.5781 1053.1641,110.4141 Q1053.4453,110.25 1053.7734,110.25 Q1054.3359,110.25 1054.6875,110.6484 Q1055.0391,111.0234 1055.0391,111.9375 L1055.0391,114.1172 Q1055.0391,115.0313 1054.6875,115.4297 Q1054.3359,115.8281 1053.7734,115.8281 Q1053.2578,115.8281 1052.9531,115.5234 Q1052.6484,115.2422 1052.4844,114.4688 Q1052.4141,113.9297 1052.1328,113.6484 Q1051.6406,113.0859 1050.7266,112.7578 Q1049.8125,112.4297 1048.875,112.4297 Q1047.7266,112.4297 1046.7656,112.9219 Q1045.8281,113.4141 1045.0781,114.5391 Q1044.3516,115.6641 1044.3516,117.2109 L1044.3516,118.8516 Q1044.3516,120.7031 1045.6875,121.9453 Q1047.0234,123.1641 1049.4141,123.1641 Q1050.8203,123.1641 1051.8047,122.7891 Q1052.3906,122.5547 1053.0234,121.8984 Q1053.4219,121.5 1053.6328,121.3828 Q1053.8672,121.2656 1054.1719,121.2656 Q1054.6641,121.2656 1055.0391,121.6641 Q1055.4375,122.0391 1055.4375,122.5547 Q1055.4375,123.0703 1054.9219,123.6797 Q1054.1719,124.5469 1052.9766,125.0391 Q1051.3594,125.7188 1049.4141,125.7188 Q1047.1406,125.7188 1045.3359,124.7813 Q1043.8594,124.0313 1042.8281,122.4375 Q1041.7969,120.8203 1041.7969,118.8984 L1041.7969,117.1641 Q1041.7969,115.1719 1042.7109,113.4609 Q1043.6484,111.7266 1045.2891,110.8125 Q1046.9297,109.875 1048.7813,109.875 Q1049.8828,109.875 1050.8438,110.1328 Q1051.8281,110.3672 1052.6484,110.9063 Z " fill="#53575A"/><text fill="#53575A" font-family="Roboto" font-size="24" font-weight="bold" lengthAdjust="spacing" textLength="280.5" x="1069.5" y="125.2969">VonNeumannArchitecture</text><line style="stroke:#E74C3C;stroke-width:3.0;" x1="1027.5" x2="1353" y1="141.0938" y2="141.0938"/><line style="stroke:#E74C3C;stroke-width:3.0;" x1="1027.5" x2="1353" y1="153.0938" y2="153.0938"/></g><!--class CentralProcessingUnit--><g id="elem_CentralProcessingUnit"><rect codeLine="7" fill="#EEEEEE" height="72" id="CentralProcessingUnit" rx="3.75" ry="3.75" style="stroke:#E74C3C;stroke-width:3.0;" width="289.5" x="472.5" y="255.0938"/><ellipse cx="495" cy="279.0938" fill="#ADD1B2" rx="16.5" ry="16.5" style="stroke:#181818;stroke-width:1.5;"/><path d="M499.1484,272.9063 Q499.3828,272.5781 499.6641,272.4141 Q499.9453,272.25 500.2734,272.25 Q500.8359,272.25 501.1875,272.6484 Q501.5391,273.0234 501.5391,273.9375 L501.5391,276.1172 Q501.5391,277.0313 501.1875,277.4297 Q500.8359,277.8281 500.2734,277.8281 Q499.7578,277.8281 499.4531,277.5234 Q499.1484,277.2422 498.9844,276.4688 Q498.9141,275.9297 498.6328,275.6484 Q498.1406,275.0859 497.2266,274.7578 Q496.3125,274.4297 495.375,274.4297 Q494.2266,274.4297 493.2656,274.9219 Q492.3281,275.4141 491.5781,276.5391 Q490.8516,277.6641 490.8516,279.2109 L490.8516,280.8516 Q490.8516,282.7031 492.1875,283.9453 Q493.5234,285.1641 495.9141,285.1641 Q497.3203,285.1641 498.3047,284.7891 Q498.8906,284.5547 499.5234,283.8984 Q499.9219,283.5 500.1328,283.3828 Q500.3672,283.2656 500.6719,283.2656 Q501.1641,283.2656 501.5391,283.6641 Q501.9375,284.0391 501.9375,284.5547 Q501.9375,285.0703 501.4219,285.6797 Q500.6719,286.5469 499.4766,287.0391 Q497.8594,287.7188 495.9141,287.7188 Q493.6406,287.7188 491.8359,286.7813 Q490.3594,286.0313 489.3281,284.4375 Q488.2969,282.8203 488.2969,280.8984 L488.2969,279.1641 Q488.2969,277.1719 489.2109,275.4609 Q490.1484,273.7266 491.7891,272.8125 Q493.4297,271.875 495.2813,271.875 Q496.3828,271.875 497.3438,272.1328 Q498.3281,272.3672 499.1484,272.9063 Z " fill="#53575A"/><text fill="#53575A" font-family="Roboto" font-size="24" font-weight="bold" lengthAdjust="spacing" textLength="241.5" x="516" y="287.2969">CentralProcessingUnit</text><line style="stroke:#E74C3C;stroke-width:3.0;" x1="474" x2="760.5" y1="303.0938" y2="303.0938"/><line style="stroke:#E74C3C;stroke-width:3.0;" x1="474" x2="760.5" y1="315.0938" y2="315.0938"/></g><!--class ControlUnit--><g id="elem_ControlUnit"><rect codeLine="11" fill="#EEEEEE" height="72" id="ControlUnit" rx="3.75" ry="3.75" style="stroke:#E74C3C;stroke-width:3.0;" width="169.5" x="10.5" y="417.0938"/><ellipse cx="33" cy="441.0938" fill="#ADD1B2" rx="16.5" ry="16.5" style="stroke:#181818;stroke-width:1.5;"/><path d="M37.1484,434.9063 Q37.3828,434.5781 37.6641,434.4141 Q37.9453,434.25 38.2734,434.25 Q38.8359,434.25 39.1875,434.6484 Q39.5391,435.0234 39.5391,435.9375 L39.5391,438.1172 Q39.5391,439.0313 39.1875,439.4297 Q38.8359,439.8281 38.2734,439.8281 Q37.7578,439.8281 37.4531,439.5234 Q37.1484,439.2422 36.9844,438.4688 Q36.9141,437.9297 36.6328,437.6484 Q36.1406,437.0859 35.2266,436.7578 Q34.3125,436.4297 33.375,436.4297 Q32.2266,436.4297 31.2656,436.9219 Q30.3281,437.4141 29.5781,438.5391 Q28.8516,439.6641 28.8516,441.2109 L28.8516,442.8516 Q28.8516,444.7031 30.1875,445.9453 Q31.5234,447.1641 33.9141,447.1641 Q35.3203,447.1641 36.3047,446.7891 Q36.8906,446.5547 37.5234,445.8984 Q37.9219,445.5 38.1328,445.3828 Q38.3672,445.2656 38.6719,445.2656 Q39.1641,445.2656 39.5391,445.6641 Q39.9375,446.0391 39.9375,446.5547 Q39.9375,447.0703 39.4219,447.6797 Q38.6719,448.5469 37.4766,449.0391 Q35.8594,449.7188 33.9141,449.7188 Q31.6406,449.7188 29.8359,448.7813 Q28.3594,448.0313 27.3281,446.4375 Q26.2969,444.8203 26.2969,442.8984 L26.2969,441.1641 Q26.2969,439.1719 27.2109,437.4609 Q28.1484,435.7266 29.7891,434.8125 Q31.4297,433.875 33.2813,433.875 Q34.3828,433.875 35.3438,434.1328 Q36.3281,434.3672 37.1484,434.9063 Z " fill="#53575A"/><text fill="#53575A" font-family="Roboto" font-size="24" font-weight="bold" lengthAdjust="spacing" textLength="121.5" x="54" y="449.2969">ControlUnit</text><line style="stroke:#E74C3C;stroke-width:3.0;" x1="12" x2="178.5" y1="465.0938" y2="465.0938"/><line style="stroke:#E74C3C;stroke-width:3.0;" x1="12" x2="178.5" y1="477.0938" y2="477.0938"/></g><!--class ArithmeticLogicUnit--><g id="elem_ArithmeticLogicUnit"><rect codeLine="15" fill="#EEEEEE" height="72" id="ArithmeticLogicUnit" rx="3.75" ry="3.75" style="stroke:#E74C3C;stroke-width:3.0;" width="262.5" x="232.5" y="417.0938"/><ellipse cx="255" cy="441.0938" fill="#ADD1B2" rx="16.5" ry="16.5" style="stroke:#181818;stroke-width:1.5;"/><path d="M259.1484,434.9063 Q259.3828,434.5781 259.6641,434.4141 Q259.9453,434.25 260.2734,434.25 Q260.8359,434.25 261.1875,434.6484 Q261.5391,435.0234 261.5391,435.9375 L261.5391,438.1172 Q261.5391,439.0313 261.1875,439.4297 Q260.8359,439.8281 260.2734,439.8281 Q259.7578,439.8281 259.4531,439.5234 Q259.1484,439.2422 258.9844,438.4688 Q258.9141,437.9297 258.6328,437.6484 Q258.1406,437.0859 257.2266,436.7578 Q256.3125,436.4297 255.375,436.4297 Q254.2266,436.4297 253.2656,436.9219 Q252.3281,437.4141 251.5781,438.5391 Q250.8516,439.6641 250.8516,441.2109 L250.8516,442.8516 Q250.8516,444.7031 252.1875,445.9453 Q253.5234,447.1641 255.9141,447.1641 Q257.3203,447.1641 258.3047,446.7891 Q258.8906,446.5547 259.5234,445.8984 Q259.9219,445.5 260.1328,445.3828 Q260.3672,445.2656 260.6719,445.2656 Q261.1641,445.2656 261.5391,445.6641 Q261.9375,446.0391 261.9375,446.5547 Q261.9375,447.0703 261.4219,447.6797 Q260.6719,448.5469 259.4766,449.0391 Q257.8594,449.7188 255.9141,449.7188 Q253.6406,449.7188 251.8359,448.7813 Q250.3594,448.0313 249.3281,446.4375 Q248.2969,444.8203 248.2969,442.8984 L248.2969,441.1641 Q248.2969,439.1719 249.2109,437.4609 Q250.1484,435.7266 251.7891,434.8125 Q253.4297,433.875 255.2813,433.875 Q256.3828,433.875 257.3438,434.1328 Q258.3281,434.3672 259.1484,434.9063 Z " fill="#53575A"/><text fill="#53575A" font-family="Roboto" font-size="24" font-weight="bold" lengthAdjust="spacing" textLength="214.5" x="276" y="449.2969">ArithmeticLogicUnit</text><line style="stroke:#E74C3C;stroke-width:3.0;" x1="234" x2="493.5" y1="465.0938" y2="465.0938"/><line style="stroke:#E74C3C;stroke-width:3.0;" x1="234" x2="493.5" y1="477.0938" y2="477.0938"/></g><!--class Register--><g id="elem_Register"><rect codeLine="19" fill="#EEEEEE" height="72" id="Register" rx="3.75" ry="3.75" style="stroke:#E74C3C;stroke-width:3.0;" width="138" x="548.25" y="417.0938"/><ellipse cx="570.75" cy="441.0938" fill="#ADD1B2" rx="16.5" ry="16.5" style="stroke:#181818;stroke-width:1.5;"/><path d="M574.8984,434.9063 Q575.1328,434.5781 575.4141,434.4141 Q575.6953,434.25 576.0234,434.25 Q576.5859,434.25 576.9375,434.6484 Q577.2891,435.0234 577.2891,435.9375 L577.2891,438.1172 Q577.2891,439.0313 576.9375,439.4297 Q576.5859,439.8281 576.0234,439.8281 Q575.5078,439.8281 575.2031,439.5234 Q574.8984,439.2422 574.7344,438.4688 Q574.6641,437.9297 574.3828,437.6484 Q573.8906,437.0859 572.9766,436.7578 Q572.0625,436.4297 571.125,436.4297 Q569.9766,436.4297 569.0156,436.9219 Q568.0781,437.4141 567.3281,438.5391 Q566.6016,439.6641 566.6016,441.2109 L566.6016,442.8516 Q566.6016,444.7031 567.9375,445.9453 Q569.2734,447.1641 571.6641,447.1641 Q573.0703,447.1641 574.0547,446.7891 Q574.6406,446.5547 575.2734,445.8984 Q575.6719,445.5 575.8828,445.3828 Q576.1172,445.2656 576.4219,445.2656 Q576.9141,445.2656 577.2891,445.6641 Q577.6875,446.0391 577.6875,446.5547 Q577.6875,447.0703 577.1719,447.6797 Q576.4219,448.5469 575.2266,449.0391 Q573.6094,449.7188 571.6641,449.7188 Q569.3906,449.7188 567.5859,448.7813 Q566.1094,448.0313 565.0781,446.4375 Q564.0469,444.8203 564.0469,442.8984 L564.0469,441.1641 Q564.0469,439.1719 564.9609,437.4609 Q565.8984,435.7266 567.5391,434.8125 Q569.1797,433.875 571.0313,433.875 Q572.1328,433.875 573.0938,434.1328 Q574.0781,434.3672 574.8984,434.9063 Z " fill="#53575A"/><text fill="#53575A" font-family="Roboto" font-size="24" font-weight="bold" lengthAdjust="spacing" textLength="90" x="591.75" y="449.2969">Register</text><line style="stroke:#E74C3C;stroke-width:3.0;" x1="549.75" x2="684.75" y1="465.0938" y2="465.0938"/><line style="stroke:#E74C3C;stroke-width:3.0;" x1="549.75" x2="684.75" y1="477.0938" y2="477.0938"/></g><!--class Storage--><g id="elem_Storage"><rect codeLine="23" fill="#EEEEEE" height="72" id="Storage" rx="3.75" ry="3.75" style="stroke:#E74C3C;stroke-width:3.0;" width="133.5" x="1020" y="255.0938"/><ellipse cx="1042.5" cy="279.0938" fill="#ADD1B2" rx="16.5" ry="16.5" style="stroke:#181818;stroke-width:1.5;"/><path d="M1046.6484,272.9063 Q1046.8828,272.5781 1047.1641,272.4141 Q1047.4453,272.25 1047.7734,272.25 Q1048.3359,272.25 1048.6875,272.6484 Q1049.0391,273.0234 1049.0391,273.9375 L1049.0391,276.1172 Q1049.0391,277.0313 1048.6875,277.4297 Q1048.3359,277.8281 1047.7734,277.8281 Q1047.2578,277.8281 1046.9531,277.5234 Q1046.6484,277.2422 1046.4844,276.4688 Q1046.4141,275.9297 1046.1328,275.6484 Q1045.6406,275.0859 1044.7266,274.7578 Q1043.8125,274.4297 1042.875,274.4297 Q1041.7266,274.4297 1040.7656,274.9219 Q1039.8281,275.4141 1039.0781,276.5391 Q1038.3516,277.6641 1038.3516,279.2109 L1038.3516,280.8516 Q1038.3516,282.7031 1039.6875,283.9453 Q1041.0234,285.1641 1043.4141,285.1641 Q1044.8203,285.1641 1045.8047,284.7891 Q1046.3906,284.5547 1047.0234,283.8984 Q1047.4219,283.5 1047.6328,283.3828 Q1047.8672,283.2656 1048.1719,283.2656 Q1048.6641,283.2656 1049.0391,283.6641 Q1049.4375,284.0391 1049.4375,284.5547 Q1049.4375,285.0703 1048.9219,285.6797 Q1048.1719,286.5469 1046.9766,287.0391 Q1045.3594,287.7188 1043.4141,287.7188 Q1041.1406,287.7188 1039.3359,286.7813 Q1037.8594,286.0313 1036.8281,284.4375 Q1035.7969,282.8203 1035.7969,280.8984 L1035.7969,279.1641 Q1035.7969,277.1719 1036.7109,275.4609 Q1037.6484,273.7266 1039.2891,272.8125 Q1040.9297,271.875 1042.7813,271.875 Q1043.8828,271.875 1044.8438,272.1328 Q1045.8281,272.3672 1046.6484,272.9063 Z " fill="#53575A"/><text fill="#53575A" font-family="Roboto" font-size="24" font-weight="bold" lengthAdjust="spacing" textLength="85.5" x="1063.5" y="287.2969">Storage</text><line style="stroke:#E74C3C;stroke-width:3.0;" x1="1021.5" x2="1152" y1="303.0938" y2="303.0938"/><line style="stroke:#E74C3C;stroke-width:3.0;" x1="1021.5" x2="1152" y1="315.0938" y2="315.0938"/></g><!--class MainMemory--><g id="elem_MainMemory"><rect codeLine="27" fill="#EEEEEE" height="72" id="MainMemory" rx="3.75" ry="3.75" style="stroke:#E74C3C;stroke-width:3.0;" width="192" x="845.25" y="417.0938"/><ellipse cx="867.75" cy="441.0938" fill="#ADD1B2" rx="16.5" ry="16.5" style="stroke:#181818;stroke-width:1.5;"/><path d="M871.8984,434.9063 Q872.1328,434.5781 872.4141,434.4141 Q872.6953,434.25 873.0234,434.25 Q873.5859,434.25 873.9375,434.6484 Q874.2891,435.0234 874.2891,435.9375 L874.2891,438.1172 Q874.2891,439.0313 873.9375,439.4297 Q873.5859,439.8281 873.0234,439.8281 Q872.5078,439.8281 872.2031,439.5234 Q871.8984,439.2422 871.7344,438.4688 Q871.6641,437.9297 871.3828,437.6484 Q870.8906,437.0859 869.9766,436.7578 Q869.0625,436.4297 868.125,436.4297 Q866.9766,436.4297 866.0156,436.9219 Q865.0781,437.4141 864.3281,438.5391 Q863.6016,439.6641 863.6016,441.2109 L863.6016,442.8516 Q863.6016,444.7031 864.9375,445.9453 Q866.2734,447.1641 868.6641,447.1641 Q870.0703,447.1641 871.0547,446.7891 Q871.6406,446.5547 872.2734,445.8984 Q872.6719,445.5 872.8828,445.3828 Q873.1172,445.2656 873.4219,445.2656 Q873.9141,445.2656 874.2891,445.6641 Q874.6875,446.0391 874.6875,446.5547 Q874.6875,447.0703 874.1719,447.6797 Q873.4219,448.5469 872.2266,449.0391 Q870.6094,449.7188 868.6641,449.7188 Q866.3906,449.7188 864.5859,448.7813 Q863.1094,448.0313 862.0781,446.4375 Q861.0469,444.8203 861.0469,442.8984 L861.0469,441.1641 Q861.0469,439.1719 861.9609,437.4609 Q862.8984,435.7266 864.5391,434.8125 Q866.1797,433.875 868.0313,433.875 Q869.1328,433.875 870.0938,434.1328 Q871.0781,434.3672 871.8984,434.9063 Z " fill="#53575A"/><text fill="#53575A" font-family="Roboto" font-size="24" font-weight="bold" lengthAdjust="spacing" textLength="144" x="888.75" y="449.2969">MainMemory</text><line style="stroke:#E74C3C;stroke-width:3.0;" x1="846.75" x2="1035.75" y1="465.0938" y2="465.0938"/><line style="stroke:#E74C3C;stroke-width:3.0;" x1="846.75" x2="1035.75" y1="477.0938" y2="477.0938"/></g><!--class SecondaryMemory--><g id="elem_SecondaryMemory"><rect codeLine="31" fill="#EEEEEE" height="72" id="SecondaryMemory" rx="3.75" ry="3.75" style="stroke:#E74C3C;stroke-width:3.0;" width="253.5" x="1090.5" y="417.0938"/><ellipse cx="1113" cy="441.0938" fill="#ADD1B2" rx="16.5" ry="16.5" style="stroke:#181818;stroke-width:1.5;"/><path d="M1117.1484,434.9063 Q1117.3828,434.5781 1117.6641,434.4141 Q1117.9453,434.25 1118.2734,434.25 Q1118.8359,434.25 1119.1875,434.6484 Q1119.5391,435.0234 1119.5391,435.9375 L1119.5391,438.1172 Q1119.5391,439.0313 1119.1875,439.4297 Q1118.8359,439.8281 1118.2734,439.8281 Q1117.7578,439.8281 1117.4531,439.5234 Q1117.1484,439.2422 1116.9844,438.4688 Q1116.9141,437.9297 1116.6328,437.6484 Q1116.1406,437.0859 1115.2266,436.7578 Q1114.3125,436.4297 1113.375,436.4297 Q1112.2266,436.4297 1111.2656,436.9219 Q1110.3281,437.4141 1109.5781,438.5391 Q1108.8516,439.6641 1108.8516,441.2109 L1108.8516,442.8516 Q1108.8516,444.7031 1110.1875,445.9453 Q1111.5234,447.1641 1113.9141,447.1641 Q1115.3203,447.1641 1116.3047,446.7891 Q1116.8906,446.5547 1117.5234,445.8984 Q1117.9219,445.5 1118.1328,445.3828 Q1118.3672,445.2656 1118.6719,445.2656 Q1119.1641,445.2656 1119.5391,445.6641 Q1119.9375,446.0391 1119.9375,446.5547 Q1119.9375,447.0703 1119.4219,447.6797 Q1118.6719,448.5469 1117.4766,449.0391 Q1115.8594,449.7188 1113.9141,449.7188 Q1111.6406,449.7188 1109.8359,448.7813 Q1108.3594,448.0313 1107.3281,446.4375 Q1106.2969,444.8203 1106.2969,442.8984 L1106.2969,441.1641 Q1106.2969,439.1719 1107.2109,437.4609 Q1108.1484,435.7266 1109.7891,434.8125 Q1111.4297,433.875 1113.2813,433.875 Q1114.3828,433.875 1115.3438,434.1328 Q1116.3281,434.3672 1117.1484,434.9063 Z " fill="#53575A"/><text fill="#53575A" font-family="Roboto" font-size="24" font-weight="bold" lengthAdjust="spacing" textLength="205.5" x="1134" y="449.2969">SecondaryMemory</text><line style="stroke:#E74C3C;stroke-width:3.0;" x1="1092" x2="1342.5" y1="465.0938" y2="465.0938"/><line style="stroke:#E74C3C;stroke-width:3.0;" x1="1092" x2="1342.5" y1="477.0938" y2="477.0938"/></g><!--class Bus--><g id="elem_Bus"><rect codeLine="35" fill="#EEEEEE" height="72" id="Bus" rx="3.75" ry="3.75" style="stroke:#E74C3C;stroke-width:3.0;" width="88.5" x="1173" y="579.0938"/><ellipse cx="1195.5" cy="603.0938" fill="#ADD1B2" rx="16.5" ry="16.5" style="stroke:#181818;stroke-width:1.5;"/><path d="M1199.6484,596.9063 Q1199.8828,596.5781 1200.1641,596.4141 Q1200.4453,596.25 1200.7734,596.25 Q1201.3359,596.25 1201.6875,596.6484 Q1202.0391,597.0234 1202.0391,597.9375 L1202.0391,600.1172 Q1202.0391,601.0313 1201.6875,601.4297 Q1201.3359,601.8281 1200.7734,601.8281 Q1200.2578,601.8281 1199.9531,601.5234 Q1199.6484,601.2422 1199.4844,600.4688 Q1199.4141,599.9297 1199.1328,599.6484 Q1198.6406,599.0859 1197.7266,598.7578 Q1196.8125,598.4297 1195.875,598.4297 Q1194.7266,598.4297 1193.7656,598.9219 Q1192.8281,599.4141 1192.0781,600.5391 Q1191.3516,601.6641 1191.3516,603.2109 L1191.3516,604.8516 Q1191.3516,606.7031 1192.6875,607.9453 Q1194.0234,609.1641 1196.4141,609.1641 Q1197.8203,609.1641 1198.8047,608.7891 Q1199.3906,608.5547 1200.0234,607.8984 Q1200.4219,607.5 1200.6328,607.3828 Q1200.8672,607.2656 1201.1719,607.2656 Q1201.6641,607.2656 1202.0391,607.6641 Q1202.4375,608.0391 1202.4375,608.5547 Q1202.4375,609.0703 1201.9219,609.6797 Q1201.1719,610.5469 1199.9766,611.0391 Q1198.3594,611.7188 1196.4141,611.7188 Q1194.1406,611.7188 1192.3359,610.7813 Q1190.8594,610.0313 1189.8281,608.4375 Q1188.7969,606.8203 1188.7969,604.8984 L1188.7969,603.1641 Q1188.7969,601.1719 1189.7109,599.4609 Q1190.6484,597.7266 1192.2891,596.8125 Q1193.9297,595.875 1195.7813,595.875 Q1196.8828,595.875 1197.8438,596.1328 Q1198.8281,596.3672 1199.6484,596.9063 Z " fill="#53575A"/><text fill="#53575A" font-family="Roboto" font-size="24" font-weight="bold" lengthAdjust="spacing" textLength="40.5" x="1216.5" y="611.2969">Bus</text><line style="stroke:#E74C3C;stroke-width:3.0;" x1="1174.5" x2="1260" y1="627.0938" y2="627.0938"/><line style="stroke:#E74C3C;stroke-width:3.0;" x1="1174.5" x2="1260" y1="639.0938" y2="639.0938"/></g><!--class InputDevice--><g id="elem_InputDevice"><rect codeLine="39" fill="#EEEEEE" height="72" id="InputDevice" rx="3.75" ry="3.75" style="stroke:#E74C3C;stroke-width:3.0;" width="175.5" x="1206" y="255.0938"/><ellipse cx="1228.5" cy="279.0938" fill="#ADD1B2" rx="16.5" ry="16.5" style="stroke:#181818;stroke-width:1.5;"/><path d="M1232.6484,272.9063 Q1232.8828,272.5781 1233.1641,272.4141 Q1233.4453,272.25 1233.7734,272.25 Q1234.3359,272.25 1234.6875,272.6484 Q1235.0391,273.0234 1235.0391,273.9375 L1235.0391,276.1172 Q1235.0391,277.0313 1234.6875,277.4297 Q1234.3359,277.8281 1233.7734,277.8281 Q1233.2578,277.8281 1232.9531,277.5234 Q1232.6484,277.2422 1232.4844,276.4688 Q1232.4141,275.9297 1232.1328,275.6484 Q1231.6406,275.0859 1230.7266,274.7578 Q1229.8125,274.4297 1228.875,274.4297 Q1227.7266,274.4297 1226.7656,274.9219 Q1225.8281,275.4141 1225.0781,276.5391 Q1224.3516,277.6641 1224.3516,279.2109 L1224.3516,280.8516 Q1224.3516,282.7031 1225.6875,283.9453 Q1227.0234,285.1641 1229.4141,285.1641 Q1230.8203,285.1641 1231.8047,284.7891 Q1232.3906,284.5547 1233.0234,283.8984 Q1233.4219,283.5 1233.6328,283.3828 Q1233.8672,283.2656 1234.1719,283.2656 Q1234.6641,283.2656 1235.0391,283.6641 Q1235.4375,284.0391 1235.4375,284.5547 Q1235.4375,285.0703 1234.9219,285.6797 Q1234.1719,286.5469 1232.9766,287.0391 Q1231.3594,287.7188 1229.4141,287.7188 Q1227.1406,287.7188 1225.3359,286.7813 Q1223.8594,286.0313 1222.8281,284.4375 Q1221.7969,282.8203 1221.7969,280.8984 L1221.7969,279.1641 Q1221.7969,277.1719 1222.7109,275.4609 Q1223.6484,273.7266 1225.2891,272.8125 Q1226.9297,271.875 1228.7813,271.875 Q1229.8828,271.875 1230.8438,272.1328 Q1231.8281,272.3672 1232.6484,272.9063 Z " fill="#53575A"/><text fill="#53575A" font-family="Roboto" font-size="24" font-weight="bold" lengthAdjust="spacing" textLength="127.5" x="1249.5" y="287.2969">InputDevice</text><line style="stroke:#E74C3C;stroke-width:3.0;" x1="1207.5" x2="1380" y1="303.0938" y2="303.0938"/><line style="stroke:#E74C3C;stroke-width:3.0;" x1="1207.5" x2="1380" y1="315.0938" y2="315.0938"/></g><!--class OutputDevice--><g id="elem_OutputDevice"><rect codeLine="51" fill="#EEEEEE" height="72" id="OutputDevice" rx="3.75" ry="3.75" style="stroke:#E74C3C;stroke-width:3.0;" width="192" x="1434.75" y="255.0938"/><ellipse cx="1457.25" cy="279.0938" fill="#ADD1B2" rx="16.5" ry="16.5" style="stroke:#181818;stroke-width:1.5;"/><path d="M1461.3984,272.9063 Q1461.6328,272.5781 1461.9141,272.4141 Q1462.1953,272.25 1462.5234,272.25 Q1463.0859,272.25 1463.4375,272.6484 Q1463.7891,273.0234 1463.7891,273.9375 L1463.7891,276.1172 Q1463.7891,277.0313 1463.4375,277.4297 Q1463.0859,277.8281 1462.5234,277.8281 Q1462.0078,277.8281 1461.7031,277.5234 Q1461.3984,277.2422 1461.2344,276.4688 Q1461.1641,275.9297 1460.8828,275.6484 Q1460.3906,275.0859 1459.4766,274.7578 Q1458.5625,274.4297 1457.625,274.4297 Q1456.4766,274.4297 1455.5156,274.9219 Q1454.5781,275.4141 1453.8281,276.5391 Q1453.1016,277.6641 1453.1016,279.2109 L1453.1016,280.8516 Q1453.1016,282.7031 1454.4375,283.9453 Q1455.7734,285.1641 1458.1641,285.1641 Q1459.5703,285.1641 1460.5547,284.7891 Q1461.1406,284.5547 1461.7734,283.8984 Q1462.1719,283.5 1462.3828,283.3828 Q1462.6172,283.2656 1462.9219,283.2656 Q1463.4141,283.2656 1463.7891,283.6641 Q1464.1875,284.0391 1464.1875,284.5547 Q1464.1875,285.0703 1463.6719,285.6797 Q1462.9219,286.5469 1461.7266,287.0391 Q1460.1094,287.7188 1458.1641,287.7188 Q1455.8906,287.7188 1454.0859,286.7813 Q1452.6094,286.0313 1451.5781,284.4375 Q1450.5469,282.8203 1450.5469,280.8984 L1450.5469,279.1641 Q1450.5469,277.1719 1451.4609,275.4609 Q1452.3984,273.7266 1454.0391,272.8125 Q1455.6797,271.875 1457.5313,271.875 Q1458.6328,271.875 1459.5938,272.1328 Q1460.5781,272.3672 1461.3984,272.9063 Z " fill="#53575A"/><text fill="#53575A" font-family="Roboto" font-size="24" font-weight="bold" lengthAdjust="spacing" textLength="144" x="1478.25" y="287.2969">OutputDevice</text><line style="stroke:#E74C3C;stroke-width:3.0;" x1="1436.25" x2="1625.25" y1="303.0938" y2="303.0938"/><line style="stroke:#E74C3C;stroke-width:3.0;" x1="1436.25" x2="1625.25" y1="315.0938" y2="315.0938"/></g><!--link VonNeumannArchitecture to CentralProcessingUnit--><g id="link_VonNeumannArchitecture_CentralProcessingUnit"><path codeLine="64" d="M1048.5705,169.9071 C952.6305,196.5321 846.5123,225.9722 750.5123,252.6122 " fill="none" id="VonNeumannArchitecture-CentralProcessingUnit" style="stroke:#53575A;stroke-width:3.0;"/><polygon fill="#53575A" points="1065.915,165.0938,1055.6383,161.719,1048.5705,169.9071,1058.8472,173.2819,1065.915,165.0938" style="stroke:#53575A;stroke-width:3.0;"/><polygon fill="#53575A" points="741.84,255.0187,756.4528,257.1904,749.0669,253.0133,753.2441,245.6274,741.84,255.0187" style="stroke:#53575A;stroke-width:3.0;"/></g><!--link VonNeumannArchitecture to Storage--><g id="link_VonNeumannArchitecture_Storage"><path codeLine="65" d="M1157.9726,180.1775 C1140.7226,206.6675 1131.7556,220.4615 1114.4306,247.0715 " fill="none" id="VonNeumannArchitecture-Storage" style="stroke:#53575A;stroke-width:3.0;"/><polygon fill="#53575A" points="1167.795,165.0938,1157.8559,169.3615,1157.9726,180.1775,1167.9117,175.9098,1167.795,165.0938" style="stroke:#53575A;stroke-width:3.0;"/><polygon fill="#53575A" points="1109.52,254.6138,1121.9141,246.574,1113.6121,248.3285,1111.8577,240.0266,1109.52,254.6138" style="stroke:#53575A;stroke-width:3.0;"/></g><!--link VonNeumannArchitecture to InputDevice--><g id="link_VonNeumannArchitecture_InputDevice"><path codeLine="66" d="M1222.5274,180.1775 C1239.7774,206.6675 1248.7444,220.4615 1266.0694,247.0715 " fill="none" id="VonNeumannArchitecture-InputDevice" style="stroke:#53575A;stroke-width:3.0;"/><polygon fill="#53575A" points="1212.705,165.0938,1212.5883,175.9098,1222.5274,180.1775,1222.6441,169.3615,1212.705,165.0938" style="stroke:#53575A;stroke-width:3.0;"/><polygon fill="#53575A" points="1270.98,254.6138,1268.6423,240.0266,1266.8879,248.3285,1258.5859,246.574,1270.98,254.6138" style="stroke:#53575A;stroke-width:3.0;"/></g><!--link VonNeumannArchitecture to OutputDevice--><g id="link_VonNeumannArchitecture_OutputDevice"><path codeLine="67" d="M1280.4489,172.7109 C1337.3589,199.2909 1391.24,224.4515 1448.27,251.0765 " fill="none" id="VonNeumannArchitecture-OutputDevice" style="stroke:#53575A;stroke-width:3.0;"/><polygon fill="#53575A" points="1264.14,165.0938,1269.7554,174.3386,1280.4489,172.7109,1274.8335,163.466,1264.14,165.0938" style="stroke:#53575A;stroke-width:3.0;"/><polygon fill="#53575A" points="1456.425,254.8838,1446.7306,243.7362,1449.6291,251.711,1441.6543,254.6096,1456.425,254.8838" style="stroke:#53575A;stroke-width:3.0;"/></g><!--link CentralProcessingUnit to ControlUnit--><g id="link_CentralProcessingUnit_ControlUnit"><path codeLine="69" d="M485.2366,332.3207 C402.7666,357.1907 306.21,386.4188 206.25,417.0938 C197.76,419.7038 197.5088,419.7767 188.6738,422.5067 " fill="none" id="CentralProcessingUnit-ControlUnit" style="stroke:#53575A;stroke-width:3.0;"/><polygon fill="#53575A" points="502.47,327.1238,492.121,323.9778,485.2366,332.3207,495.5856,335.4667,502.47,327.1238" style="stroke:#53575A;stroke-width:3.0;"/><polygon fill="#53575A" points="180.075,425.1638,194.7446,426.9108,187.2407,422.9496,191.2019,415.4456,180.075,425.1638" style="stroke:#53575A;stroke-width:3.0;"/></g><!--link CentralProcessingUnit to ArithmeticLogicUnit--><g id="link_CentralProcessingUnit_ArithmeticLogicUnit"><path codeLine="70" d="M546.9965,336.6585 C504.6215,363.2385 469.1752,385.4779 426.7102,412.1029 " fill="none" id="CentralProcessingUnit-ArithmeticLogicUnit" style="stroke:#53575A;stroke-width:3.0;"/><polygon fill="#53575A" points="562.245,327.0938,551.4325,326.7933,546.9965,336.6585,557.809,336.9589,562.245,327.0938" style="stroke:#53575A;stroke-width:3.0;"/><polygon fill="#53575A" points="419.085,416.8838,433.71,414.7959,425.4393,412.8997,427.3355,404.629,419.085,416.8838" style="stroke:#53575A;stroke-width:3.0;"/></g><!--link CentralProcessingUnit to Register--><g id="link_CentralProcessingUnit_Register"><path codeLine="71" d="M617.25,345.0938 C617.25,371.5838 617.25,381.0037 617.25,407.6138 " fill="none" id="CentralProcessingUnit-Register" style="stroke:#53575A;stroke-width:3.0;"/><polygon fill="#53575A" points="617.25,327.0938,611.25,336.0938,617.25,345.0938,623.25,336.0938,617.25,327.0938" style="stroke:#53575A;stroke-width:3.0;"/><polygon fill="#53575A" points="617.25,416.6138,623.25,403.1138,617.25,409.1138,611.25,403.1138,617.25,416.6138" style="stroke:#53575A;stroke-width:3.0;"/><text fill="#88992E" font-family="Roboto" font-size="15" font-weight="bold" lengthAdjust="spacing" textLength="25.5" x="588.1641" y="401.6011">1..*</text></g><!--link Storage to MainMemory--><g id="link_Storage_MainMemory"><path codeLine="73" d="M1043.0235,340.3731 C1018.7835,366.8631 1003.6801,383.3635 979.3351,409.9735 " fill="none" id="Storage-MainMemory" style="stroke:#53575A;stroke-width:3.0;"/><polygon fill="none" points="1055.175,327.0938,1044.6728,329.683,1043.0235,340.3731,1053.5257,337.7839,1055.175,327.0938" style="stroke:#53575A;stroke-width:3.0;"/><polygon fill="#53575A" points="973.26,416.6138,986.7995,410.7034,978.3226,411.0802,977.9458,402.6033,973.26,416.6138" style="stroke:#53575A;stroke-width:3.0;"/></g><!--link Storage to SecondaryMemory--><g id="link_Storage_SecondaryMemory"><path codeLine="74" d="M1126.4876,341.0092 C1148.2226,367.4992 1160.9902,383.0469 1182.8302,409.6569 " fill="none" id="Storage-SecondaryMemory" style="stroke:#53575A;stroke-width:3.0;"/><polygon fill="none" points="1115.07,327.0938,1116.1403,337.8573,1126.4876,341.0092,1125.4173,330.2456,1115.07,327.0938" style="stroke:#53575A;stroke-width:3.0;"/><polygon fill="#53575A" points="1188.54,416.6138,1184.6132,402.3719,1183.7818,410.8164,1175.3374,409.985,1188.54,416.6138" style="stroke:#53575A;stroke-width:3.0;"/></g><!--link CentralProcessingUnit to Bus--><g id="link_CentralProcessingUnit_Bus"><path codeLine="82" d="M643.77,327.1388 C679.065,370.8638 745.56,445.6838 818.25,489.0938 C935.385,559.0238 1086.7921,591.8525 1163.6821,605.1725 " fill="none" id="CentralProcessingUnit-to-Bus" style="stroke:#53575A;stroke-width:3.0;stroke-dasharray:7.0,7.0;"/><polygon fill="#53575A" points="1172.55,606.7088,1160.2723,598.4925,1165.1601,605.4286,1158.224,610.3164,1172.55,606.7088" style="stroke:#53575A;stroke-width:3.0;"/><text fill="#88992E" font-family="Roboto" font-size="15" font-weight="bold" lengthAdjust="spacing" textLength="25.5" x="1135.2009" y="600.805">1..*</text></g><!--link MainMemory to Bus--><g id="link_MainMemory_Bus"><path codeLine="83" d="M1001.145,489.0938 C1052.82,518.8688 1118.5074,556.7046 1165.0674,583.5396 " fill="none" id="MainMemory-to-Bus" style="stroke:#53575A;stroke-width:3.0;stroke-dasharray:7.0,7.0;"/><polygon fill="#53575A" points="1172.865,588.0337,1164.1647,576.0941,1166.367,584.2886,1158.1725,586.4909,1172.865,588.0337" style="stroke:#53575A;stroke-width:3.0;"/><text fill="#88992E" font-family="Roboto" font-size="15" font-weight="bold" lengthAdjust="spacing" textLength="25.5" x="1135.5809" y="578.2783">1..*</text></g><!--link SecondaryMemory to Bus--><g id="link_SecondaryMemory_Bus"><path codeLine="84" d="M1217.25,489.0938 C1217.25,515.5838 1217.25,543.0038 1217.25,569.6138 " fill="none" id="SecondaryMemory-to-Bus" style="stroke:#53575A;stroke-width:3.0;stroke-dasharray:7.0,7.0;"/><polygon fill="#53575A" points="1217.25,578.6138,1223.25,565.1138,1217.25,571.1138,1211.25,565.1138,1217.25,578.6138" style="stroke:#53575A;stroke-width:3.0;"/><text fill="#88992E" font-family="Roboto" font-size="15" font-weight="bold" lengthAdjust="spacing" textLength="25.5" x="1188.1641" y="563.6011">1..*</text></g><!--link OutputDevice to Bus--><g id="link_OutputDevice_Bus"><path codeLine="86" d="M1516.275,327.0938 C1497.39,369.0938 1461.09,440.4188 1413.75,489.0938 C1369.125,534.9788 1312.4832,567.7556 1269.6732,589.1156 " fill="none" id="OutputDevice-to-Bus" style="stroke:#53575A;stroke-width:3.0;stroke-dasharray:7.0,7.0;"/><polygon fill="#53575A" points="1261.62,593.1338,1276.3786,592.4753,1268.331,589.7853,1271.0211,581.7377,1261.62,593.1338" style="stroke:#53575A;stroke-width:3.0;"/><text fill="#88992E" font-family="Roboto" font-size="15" font-weight="bold" lengthAdjust="spacing" textLength="25.5" x="1483.4583" y="353.0468">1..*</text><text fill="#88992E" font-family="Roboto" font-size="15" font-weight="bold" lengthAdjust="spacing" textLength="25.5" x="1273.401" y="604.3333">1..*</text></g><!--link InputDevice to Bus--><g id="link_InputDevice_Bus"><path codeLine="87" d="M1324.575,327.3038 C1355.955,367.0838 1396.5,433.8787 1370.25,489.0938 C1348.05,535.7887 1306.6337,566.2841 1269.9737,587.0741 " fill="none" id="InputDevice-to-Bus" style="stroke:#53575A;stroke-width:3.0;stroke-dasharray:7.0,7.0;"/><polygon fill="#53575A" points="1262.145,591.5138,1276.8479,590.0734,1268.6689,587.814,1270.9283,579.635,1262.145,591.5138" style="stroke:#53575A;stroke-width:3.0;"/><text fill="#88992E" font-family="Roboto" font-size="15" font-weight="bold" lengthAdjust="spacing" textLength="25.5" x="1303.7067" y="352.7508">1..*</text><text fill="#88992E" font-family="Roboto" font-size="15" font-weight="bold" lengthAdjust="spacing" textLength="25.5" x="1273.4939" y="582.7694">1..*</text></g><rect fill="#DDDDDD" height="39.6094" id="_legend" rx="3.75" ry="3.75" style="stroke:#000000;stroke-width:1.5;" width="448.5" x="583.875" y="678.0938"/><text fill="#53575A" font-family="Roboto" font-size="21" lengthAdjust="spacing" textLength="433.5" x="591.375" y="705.0762">Domain model : The von Neumann architecture</text><text fill="#53575A" font-family="Roboto" font-size="21" lengthAdjust="spacing" textLength="310.5" x="652.875" y="758.1855">M&#225;ster en Ingenier&#237;a del Software</text><text fill="#53575A" font-family="Roboto" font-size="15" lengthAdjust="spacing" textLength="61.5" x="777.375" y="780.2285">escuela.it</text><!--SRC=[KypCIyufJKbLqDFJJqeiJjM7ylKAIdDpk1HXikb5cIbeGiavYSN5gSKGKH000000]--></g></svg>