<?xml version="1.0" encoding="us-ascii" standalone="no"?><svg xmlns="http://www.w3.org/2000/svg" xmlns:xlink="http://www.w3.org/1999/xlink" contentStyleType="text/css" height="919.5px" preserveAspectRatio="none" style="width:1636px;height:919px;background:#FFFFFF;" version="1.1" viewBox="0 0 1636 919" width="1636.5px" zoomAndPan="magnify"><defs><style type="text/css">@import url('https://fonts.googleapis.com/css?family=Roboto:400,100,100italic,300,300italic,400italic,500,500italic,700,700italic,900,900italic');</style></defs><g><rect fill="#E74C3C" height="54.6094" rx="3.75" ry="3.75" style="stroke:#E74C3C;stroke-width:1.5;" width="522" x="547.125" y="30"/><text fill="#FFFFFF" font-family="Roboto" font-size="21" font-weight="bold" lengthAdjust="spacing" textLength="492" x="562.125" y="64.4824">EscuelaIT - Curso de Modelado Orientado a Objetos</text><!--class VonNeumannArchitecture--><g id="elem_VonNeumannArchitecture"><rect codeLine="3" fill="#EEEEEE" height="72" id="VonNeumannArchitecture" rx="3.75" ry="3.75" style="stroke:#E74C3C;stroke-width:3.0;" width="328.5" x="1026" y="156.6094"/><ellipse cx="1048.5" cy="180.6094" fill="#ADD1B2" rx="16.5" ry="16.5" style="stroke:#181818;stroke-width:1.5;"/><path d="M1052.6484,174.4219 Q1052.8828,174.0938 1053.1641,173.9297 Q1053.4453,173.7656 1053.7734,173.7656 Q1054.3359,173.7656 1054.6875,174.1641 Q1055.0391,174.5391 1055.0391,175.4531 L1055.0391,177.6328 Q1055.0391,178.5469 1054.6875,178.9453 Q1054.3359,179.3438 1053.7734,179.3438 Q1053.2578,179.3438 1052.9531,179.0391 Q1052.6484,178.7578 1052.4844,177.9844 Q1052.4141,177.4453 1052.1328,177.1641 Q1051.6406,176.6016 1050.7266,176.2734 Q1049.8125,175.9453 1048.875,175.9453 Q1047.7266,175.9453 1046.7656,176.4375 Q1045.8281,176.9297 1045.0781,178.0547 Q1044.3516,179.1797 1044.3516,180.7266 L1044.3516,182.3672 Q1044.3516,184.2188 1045.6875,185.4609 Q1047.0234,186.6797 1049.4141,186.6797 Q1050.8203,186.6797 1051.8047,186.3047 Q1052.3906,186.0703 1053.0234,185.4141 Q1053.4219,185.0156 1053.6328,184.8984 Q1053.8672,184.7813 1054.1719,184.7813 Q1054.6641,184.7813 1055.0391,185.1797 Q1055.4375,185.5547 1055.4375,186.0703 Q1055.4375,186.5859 1054.9219,187.1953 Q1054.1719,188.0625 1052.9766,188.5547 Q1051.3594,189.2344 1049.4141,189.2344 Q1047.1406,189.2344 1045.3359,188.2969 Q1043.8594,187.5469 1042.8281,185.9531 Q1041.7969,184.3359 1041.7969,182.4141 L1041.7969,180.6797 Q1041.7969,178.6875 1042.7109,176.9766 Q1043.6484,175.2422 1045.2891,174.3281 Q1046.9297,173.3906 1048.7813,173.3906 Q1049.8828,173.3906 1050.8438,173.6484 Q1051.8281,173.8828 1052.6484,174.4219 Z " fill="#000000"/><text fill="#53575A" font-family="Roboto" font-size="24" font-weight="bold" lengthAdjust="spacing" textLength="280.5" x="1069.5" y="188.8125">VonNeumannArchitecture</text><line style="stroke:#E74C3C;stroke-width:3.0;" x1="1027.5" x2="1353" y1="204.6094" y2="204.6094"/><line style="stroke:#E74C3C;stroke-width:3.0;" x1="1027.5" x2="1353" y1="216.6094" y2="216.6094"/></g><!--class CentralProcessingUnit--><g id="elem_CentralProcessingUnit"><rect codeLine="7" fill="#EEEEEE" height="72" id="CentralProcessingUnit" rx="3.75" ry="3.75" style="stroke:#E74C3C;stroke-width:3.0;" width="289.5" x="472.5" y="318.6094"/><ellipse cx="495" cy="342.6094" fill="#ADD1B2" rx="16.5" ry="16.5" style="stroke:#181818;stroke-width:1.5;"/><path d="M499.1484,336.4219 Q499.3828,336.0938 499.6641,335.9297 Q499.9453,335.7656 500.2734,335.7656 Q500.8359,335.7656 501.1875,336.1641 Q501.5391,336.5391 501.5391,337.4531 L501.5391,339.6328 Q501.5391,340.5469 501.1875,340.9453 Q500.8359,341.3438 500.2734,341.3438 Q499.7578,341.3438 499.4531,341.0391 Q499.1484,340.7578 498.9844,339.9844 Q498.9141,339.4453 498.6328,339.1641 Q498.1406,338.6016 497.2266,338.2734 Q496.3125,337.9453 495.375,337.9453 Q494.2266,337.9453 493.2656,338.4375 Q492.3281,338.9297 491.5781,340.0547 Q490.8516,341.1797 490.8516,342.7266 L490.8516,344.3672 Q490.8516,346.2188 492.1875,347.4609 Q493.5234,348.6797 495.9141,348.6797 Q497.3203,348.6797 498.3047,348.3047 Q498.8906,348.0703 499.5234,347.4141 Q499.9219,347.0156 500.1328,346.8984 Q500.3672,346.7813 500.6719,346.7813 Q501.1641,346.7813 501.5391,347.1797 Q501.9375,347.5547 501.9375,348.0703 Q501.9375,348.5859 501.4219,349.1953 Q500.6719,350.0625 499.4766,350.5547 Q497.8594,351.2344 495.9141,351.2344 Q493.6406,351.2344 491.8359,350.2969 Q490.3594,349.5469 489.3281,347.9531 Q488.2969,346.3359 488.2969,344.4141 L488.2969,342.6797 Q488.2969,340.6875 489.2109,338.9766 Q490.1484,337.2422 491.7891,336.3281 Q493.4297,335.3906 495.2813,335.3906 Q496.3828,335.3906 497.3438,335.6484 Q498.3281,335.8828 499.1484,336.4219 Z " fill="#000000"/><text fill="#53575A" font-family="Roboto" font-size="24" font-weight="bold" lengthAdjust="spacing" textLength="241.5" x="516" y="350.8125">CentralProcessingUnit</text><line style="stroke:#E74C3C;stroke-width:3.0;" x1="474" x2="760.5" y1="366.6094" y2="366.6094"/><line style="stroke:#E74C3C;stroke-width:3.0;" x1="474" x2="760.5" y1="378.6094" y2="378.6094"/></g><!--class ControlUnit--><g id="elem_ControlUnit"><rect codeLine="11" fill="#EEEEEE" height="72" id="ControlUnit" rx="3.75" ry="3.75" style="stroke:#E74C3C;stroke-width:3.0;" width="169.5" x="10.5" y="480.6094"/><ellipse cx="33" cy="504.6094" fill="#ADD1B2" rx="16.5" ry="16.5" style="stroke:#181818;stroke-width:1.5;"/><path d="M37.1484,498.4219 Q37.3828,498.0938 37.6641,497.9297 Q37.9453,497.7656 38.2734,497.7656 Q38.8359,497.7656 39.1875,498.1641 Q39.5391,498.5391 39.5391,499.4531 L39.5391,501.6328 Q39.5391,502.5469 39.1875,502.9453 Q38.8359,503.3438 38.2734,503.3438 Q37.7578,503.3438 37.4531,503.0391 Q37.1484,502.7578 36.9844,501.9844 Q36.9141,501.4453 36.6328,501.1641 Q36.1406,500.6016 35.2266,500.2734 Q34.3125,499.9453 33.375,499.9453 Q32.2266,499.9453 31.2656,500.4375 Q30.3281,500.9297 29.5781,502.0547 Q28.8516,503.1797 28.8516,504.7266 L28.8516,506.3672 Q28.8516,508.2188 30.1875,509.4609 Q31.5234,510.6797 33.9141,510.6797 Q35.3203,510.6797 36.3047,510.3047 Q36.8906,510.0703 37.5234,509.4141 Q37.9219,509.0156 38.1328,508.8984 Q38.3672,508.7813 38.6719,508.7813 Q39.1641,508.7813 39.5391,509.1797 Q39.9375,509.5547 39.9375,510.0703 Q39.9375,510.5859 39.4219,511.1953 Q38.6719,512.0625 37.4766,512.5547 Q35.8594,513.2344 33.9141,513.2344 Q31.6406,513.2344 29.8359,512.2969 Q28.3594,511.5469 27.3281,509.9531 Q26.2969,508.3359 26.2969,506.4141 L26.2969,504.6797 Q26.2969,502.6875 27.2109,500.9766 Q28.1484,499.2422 29.7891,498.3281 Q31.4297,497.3906 33.2813,497.3906 Q34.3828,497.3906 35.3438,497.6484 Q36.3281,497.8828 37.1484,498.4219 Z " fill="#000000"/><text fill="#53575A" font-family="Roboto" font-size="24" font-weight="bold" lengthAdjust="spacing" textLength="121.5" x="54" y="512.8125">ControlUnit</text><line style="stroke:#E74C3C;stroke-width:3.0;" x1="12" x2="178.5" y1="528.6094" y2="528.6094"/><line style="stroke:#E74C3C;stroke-width:3.0;" x1="12" x2="178.5" y1="540.6094" y2="540.6094"/></g><!--class ArithmeticLogicUnit--><g id="elem_ArithmeticLogicUnit"><rect codeLine="15" fill="#EEEEEE" height="72" id="ArithmeticLogicUnit" rx="3.75" ry="3.75" style="stroke:#E74C3C;stroke-width:3.0;" width="262.5" x="232.5" y="480.6094"/><ellipse cx="255" cy="504.6094" fill="#ADD1B2" rx="16.5" ry="16.5" style="stroke:#181818;stroke-width:1.5;"/><path d="M259.1484,498.4219 Q259.3828,498.0938 259.6641,497.9297 Q259.9453,497.7656 260.2734,497.7656 Q260.8359,497.7656 261.1875,498.1641 Q261.5391,498.5391 261.5391,499.4531 L261.5391,501.6328 Q261.5391,502.5469 261.1875,502.9453 Q260.8359,503.3438 260.2734,503.3438 Q259.7578,503.3438 259.4531,503.0391 Q259.1484,502.7578 258.9844,501.9844 Q258.9141,501.4453 258.6328,501.1641 Q258.1406,500.6016 257.2266,500.2734 Q256.3125,499.9453 255.375,499.9453 Q254.2266,499.9453 253.2656,500.4375 Q252.3281,500.9297 251.5781,502.0547 Q250.8516,503.1797 250.8516,504.7266 L250.8516,506.3672 Q250.8516,508.2188 252.1875,509.4609 Q253.5234,510.6797 255.9141,510.6797 Q257.3203,510.6797 258.3047,510.3047 Q258.8906,510.0703 259.5234,509.4141 Q259.9219,509.0156 260.1328,508.8984 Q260.3672,508.7813 260.6719,508.7813 Q261.1641,508.7813 261.5391,509.1797 Q261.9375,509.5547 261.9375,510.0703 Q261.9375,510.5859 261.4219,511.1953 Q260.6719,512.0625 259.4766,512.5547 Q257.8594,513.2344 255.9141,513.2344 Q253.6406,513.2344 251.8359,512.2969 Q250.3594,511.5469 249.3281,509.9531 Q248.2969,508.3359 248.2969,506.4141 L248.2969,504.6797 Q248.2969,502.6875 249.2109,500.9766 Q250.1484,499.2422 251.7891,498.3281 Q253.4297,497.3906 255.2813,497.3906 Q256.3828,497.3906 257.3438,497.6484 Q258.3281,497.8828 259.1484,498.4219 Z " fill="#000000"/><text fill="#53575A" font-family="Roboto" font-size="24" font-weight="bold" lengthAdjust="spacing" textLength="214.5" x="276" y="512.8125">ArithmeticLogicUnit</text><line style="stroke:#E74C3C;stroke-width:3.0;" x1="234" x2="493.5" y1="528.6094" y2="528.6094"/><line style="stroke:#E74C3C;stroke-width:3.0;" x1="234" x2="493.5" y1="540.6094" y2="540.6094"/></g><!--class Register--><g id="elem_Register"><rect codeLine="19" fill="#EEEEEE" height="72" id="Register" rx="3.75" ry="3.75" style="stroke:#E74C3C;stroke-width:3.0;" width="138" x="548.25" y="480.6094"/><ellipse cx="570.75" cy="504.6094" fill="#ADD1B2" rx="16.5" ry="16.5" style="stroke:#181818;stroke-width:1.5;"/><path d="M574.8984,498.4219 Q575.1328,498.0938 575.4141,497.9297 Q575.6953,497.7656 576.0234,497.7656 Q576.5859,497.7656 576.9375,498.1641 Q577.2891,498.5391 577.2891,499.4531 L577.2891,501.6328 Q577.2891,502.5469 576.9375,502.9453 Q576.5859,503.3438 576.0234,503.3438 Q575.5078,503.3438 575.2031,503.0391 Q574.8984,502.7578 574.7344,501.9844 Q574.6641,501.4453 574.3828,501.1641 Q573.8906,500.6016 572.9766,500.2734 Q572.0625,499.9453 571.125,499.9453 Q569.9766,499.9453 569.0156,500.4375 Q568.0781,500.9297 567.3281,502.0547 Q566.6016,503.1797 566.6016,504.7266 L566.6016,506.3672 Q566.6016,508.2188 567.9375,509.4609 Q569.2734,510.6797 571.6641,510.6797 Q573.0703,510.6797 574.0547,510.3047 Q574.6406,510.0703 575.2734,509.4141 Q575.6719,509.0156 575.8828,508.8984 Q576.1172,508.7813 576.4219,508.7813 Q576.9141,508.7813 577.2891,509.1797 Q577.6875,509.5547 577.6875,510.0703 Q577.6875,510.5859 577.1719,511.1953 Q576.4219,512.0625 575.2266,512.5547 Q573.6094,513.2344 571.6641,513.2344 Q569.3906,513.2344 567.5859,512.2969 Q566.1094,511.5469 565.0781,509.9531 Q564.0469,508.3359 564.0469,506.4141 L564.0469,504.6797 Q564.0469,502.6875 564.9609,500.9766 Q565.8984,499.2422 567.5391,498.3281 Q569.1797,497.3906 571.0313,497.3906 Q572.1328,497.3906 573.0938,497.6484 Q574.0781,497.8828 574.8984,498.4219 Z " fill="#000000"/><text fill="#53575A" font-family="Roboto" font-size="24" font-weight="bold" lengthAdjust="spacing" textLength="90" x="591.75" y="512.8125">Register</text><line style="stroke:#E74C3C;stroke-width:3.0;" x1="549.75" x2="684.75" y1="528.6094" y2="528.6094"/><line style="stroke:#E74C3C;stroke-width:3.0;" x1="549.75" x2="684.75" y1="540.6094" y2="540.6094"/></g><!--class Storage--><g id="elem_Storage"><rect codeLine="23" fill="#EEEEEE" height="72" id="Storage" rx="3.75" ry="3.75" style="stroke:#E74C3C;stroke-width:3.0;" width="133.5" x="1020" y="318.6094"/><ellipse cx="1042.5" cy="342.6094" fill="#ADD1B2" rx="16.5" ry="16.5" style="stroke:#181818;stroke-width:1.5;"/><path d="M1046.6484,336.4219 Q1046.8828,336.0938 1047.1641,335.9297 Q1047.4453,335.7656 1047.7734,335.7656 Q1048.3359,335.7656 1048.6875,336.1641 Q1049.0391,336.5391 1049.0391,337.4531 L1049.0391,339.6328 Q1049.0391,340.5469 1048.6875,340.9453 Q1048.3359,341.3438 1047.7734,341.3438 Q1047.2578,341.3438 1046.9531,341.0391 Q1046.6484,340.7578 1046.4844,339.9844 Q1046.4141,339.4453 1046.1328,339.1641 Q1045.6406,338.6016 1044.7266,338.2734 Q1043.8125,337.9453 1042.875,337.9453 Q1041.7266,337.9453 1040.7656,338.4375 Q1039.8281,338.9297 1039.0781,340.0547 Q1038.3516,341.1797 1038.3516,342.7266 L1038.3516,344.3672 Q1038.3516,346.2188 1039.6875,347.4609 Q1041.0234,348.6797 1043.4141,348.6797 Q1044.8203,348.6797 1045.8047,348.3047 Q1046.3906,348.0703 1047.0234,347.4141 Q1047.4219,347.0156 1047.6328,346.8984 Q1047.8672,346.7813 1048.1719,346.7813 Q1048.6641,346.7813 1049.0391,347.1797 Q1049.4375,347.5547 1049.4375,348.0703 Q1049.4375,348.5859 1048.9219,349.1953 Q1048.1719,350.0625 1046.9766,350.5547 Q1045.3594,351.2344 1043.4141,351.2344 Q1041.1406,351.2344 1039.3359,350.2969 Q1037.8594,349.5469 1036.8281,347.9531 Q1035.7969,346.3359 1035.7969,344.4141 L1035.7969,342.6797 Q1035.7969,340.6875 1036.7109,338.9766 Q1037.6484,337.2422 1039.2891,336.3281 Q1040.9297,335.3906 1042.7813,335.3906 Q1043.8828,335.3906 1044.8438,335.6484 Q1045.8281,335.8828 1046.6484,336.4219 Z " fill="#000000"/><text fill="#53575A" font-family="Roboto" font-size="24" font-weight="bold" lengthAdjust="spacing" textLength="85.5" x="1063.5" y="350.8125">Storage</text><line style="stroke:#E74C3C;stroke-width:3.0;" x1="1021.5" x2="1152" y1="366.6094" y2="366.6094"/><line style="stroke:#E74C3C;stroke-width:3.0;" x1="1021.5" x2="1152" y1="378.6094" y2="378.6094"/></g><!--class MainMemory--><g id="elem_MainMemory"><rect codeLine="27" fill="#EEEEEE" height="72" id="MainMemory" rx="3.75" ry="3.75" style="stroke:#E74C3C;stroke-width:3.0;" width="192" x="845.25" y="480.6094"/><ellipse cx="867.75" cy="504.6094" fill="#ADD1B2" rx="16.5" ry="16.5" style="stroke:#181818;stroke-width:1.5;"/><path d="M871.8984,498.4219 Q872.1328,498.0938 872.4141,497.9297 Q872.6953,497.7656 873.0234,497.7656 Q873.5859,497.7656 873.9375,498.1641 Q874.2891,498.5391 874.2891,499.4531 L874.2891,501.6328 Q874.2891,502.5469 873.9375,502.9453 Q873.5859,503.3438 873.0234,503.3438 Q872.5078,503.3438 872.2031,503.0391 Q871.8984,502.7578 871.7344,501.9844 Q871.6641,501.4453 871.3828,501.1641 Q870.8906,500.6016 869.9766,500.2734 Q869.0625,499.9453 868.125,499.9453 Q866.9766,499.9453 866.0156,500.4375 Q865.0781,500.9297 864.3281,502.0547 Q863.6016,503.1797 863.6016,504.7266 L863.6016,506.3672 Q863.6016,508.2188 864.9375,509.4609 Q866.2734,510.6797 868.6641,510.6797 Q870.0703,510.6797 871.0547,510.3047 Q871.6406,510.0703 872.2734,509.4141 Q872.6719,509.0156 872.8828,508.8984 Q873.1172,508.7813 873.4219,508.7813 Q873.9141,508.7813 874.2891,509.1797 Q874.6875,509.5547 874.6875,510.0703 Q874.6875,510.5859 874.1719,511.1953 Q873.4219,512.0625 872.2266,512.5547 Q870.6094,513.2344 868.6641,513.2344 Q866.3906,513.2344 864.5859,512.2969 Q863.1094,511.5469 862.0781,509.9531 Q861.0469,508.3359 861.0469,506.4141 L861.0469,504.6797 Q861.0469,502.6875 861.9609,500.9766 Q862.8984,499.2422 864.5391,498.3281 Q866.1797,497.3906 868.0313,497.3906 Q869.1328,497.3906 870.0938,497.6484 Q871.0781,497.8828 871.8984,498.4219 Z " fill="#000000"/><text fill="#53575A" font-family="Roboto" font-size="24" font-weight="bold" lengthAdjust="spacing" textLength="144" x="888.75" y="512.8125">MainMemory</text><line style="stroke:#E74C3C;stroke-width:3.0;" x1="846.75" x2="1035.75" y1="528.6094" y2="528.6094"/><line style="stroke:#E74C3C;stroke-width:3.0;" x1="846.75" x2="1035.75" y1="540.6094" y2="540.6094"/></g><!--class SecondaryMemory--><g id="elem_SecondaryMemory"><rect codeLine="31" fill="#EEEEEE" height="72" id="SecondaryMemory" rx="3.75" ry="3.75" style="stroke:#E74C3C;stroke-width:3.0;" width="253.5" x="1090.5" y="480.6094"/><ellipse cx="1113" cy="504.6094" fill="#ADD1B2" rx="16.5" ry="16.5" style="stroke:#181818;stroke-width:1.5;"/><path d="M1117.1484,498.4219 Q1117.3828,498.0938 1117.6641,497.9297 Q1117.9453,497.7656 1118.2734,497.7656 Q1118.8359,497.7656 1119.1875,498.1641 Q1119.5391,498.5391 1119.5391,499.4531 L1119.5391,501.6328 Q1119.5391,502.5469 1119.1875,502.9453 Q1118.8359,503.3438 1118.2734,503.3438 Q1117.7578,503.3438 1117.4531,503.0391 Q1117.1484,502.7578 1116.9844,501.9844 Q1116.9141,501.4453 1116.6328,501.1641 Q1116.1406,500.6016 1115.2266,500.2734 Q1114.3125,499.9453 1113.375,499.9453 Q1112.2266,499.9453 1111.2656,500.4375 Q1110.3281,500.9297 1109.5781,502.0547 Q1108.8516,503.1797 1108.8516,504.7266 L1108.8516,506.3672 Q1108.8516,508.2188 1110.1875,509.4609 Q1111.5234,510.6797 1113.9141,510.6797 Q1115.3203,510.6797 1116.3047,510.3047 Q1116.8906,510.0703 1117.5234,509.4141 Q1117.9219,509.0156 1118.1328,508.8984 Q1118.3672,508.7813 1118.6719,508.7813 Q1119.1641,508.7813 1119.5391,509.1797 Q1119.9375,509.5547 1119.9375,510.0703 Q1119.9375,510.5859 1119.4219,511.1953 Q1118.6719,512.0625 1117.4766,512.5547 Q1115.8594,513.2344 1113.9141,513.2344 Q1111.6406,513.2344 1109.8359,512.2969 Q1108.3594,511.5469 1107.3281,509.9531 Q1106.2969,508.3359 1106.2969,506.4141 L1106.2969,504.6797 Q1106.2969,502.6875 1107.2109,500.9766 Q1108.1484,499.2422 1109.7891,498.3281 Q1111.4297,497.3906 1113.2813,497.3906 Q1114.3828,497.3906 1115.3438,497.6484 Q1116.3281,497.8828 1117.1484,498.4219 Z " fill="#000000"/><text fill="#53575A" font-family="Roboto" font-size="24" font-weight="bold" lengthAdjust="spacing" textLength="205.5" x="1134" y="512.8125">SecondaryMemory</text><line style="stroke:#E74C3C;stroke-width:3.0;" x1="1092" x2="1342.5" y1="528.6094" y2="528.6094"/><line style="stroke:#E74C3C;stroke-width:3.0;" x1="1092" x2="1342.5" y1="540.6094" y2="540.6094"/></g><!--class Bus--><g id="elem_Bus"><rect codeLine="35" fill="#EEEEEE" height="72" id="Bus" rx="3.75" ry="3.75" style="stroke:#E74C3C;stroke-width:3.0;" width="88.5" x="1173" y="642.6094"/><ellipse cx="1195.5" cy="666.6094" fill="#ADD1B2" rx="16.5" ry="16.5" style="stroke:#181818;stroke-width:1.5;"/><path d="M1199.6484,660.4219 Q1199.8828,660.0938 1200.1641,659.9297 Q1200.4453,659.7656 1200.7734,659.7656 Q1201.3359,659.7656 1201.6875,660.1641 Q1202.0391,660.5391 1202.0391,661.4531 L1202.0391,663.6328 Q1202.0391,664.5469 1201.6875,664.9453 Q1201.3359,665.3438 1200.7734,665.3438 Q1200.2578,665.3438 1199.9531,665.0391 Q1199.6484,664.7578 1199.4844,663.9844 Q1199.4141,663.4453 1199.1328,663.1641 Q1198.6406,662.6016 1197.7266,662.2734 Q1196.8125,661.9453 1195.875,661.9453 Q1194.7266,661.9453 1193.7656,662.4375 Q1192.8281,662.9297 1192.0781,664.0547 Q1191.3516,665.1797 1191.3516,666.7266 L1191.3516,668.3672 Q1191.3516,670.2188 1192.6875,671.4609 Q1194.0234,672.6797 1196.4141,672.6797 Q1197.8203,672.6797 1198.8047,672.3047 Q1199.3906,672.0703 1200.0234,671.4141 Q1200.4219,671.0156 1200.6328,670.8984 Q1200.8672,670.7813 1201.1719,670.7813 Q1201.6641,670.7813 1202.0391,671.1797 Q1202.4375,671.5547 1202.4375,672.0703 Q1202.4375,672.5859 1201.9219,673.1953 Q1201.1719,674.0625 1199.9766,674.5547 Q1198.3594,675.2344 1196.4141,675.2344 Q1194.1406,675.2344 1192.3359,674.2969 Q1190.8594,673.5469 1189.8281,671.9531 Q1188.7969,670.3359 1188.7969,668.4141 L1188.7969,666.6797 Q1188.7969,664.6875 1189.7109,662.9766 Q1190.6484,661.2422 1192.2891,660.3281 Q1193.9297,659.3906 1195.7813,659.3906 Q1196.8828,659.3906 1197.8438,659.6484 Q1198.8281,659.8828 1199.6484,660.4219 Z " fill="#000000"/><text fill="#53575A" font-family="Roboto" font-size="24" font-weight="bold" lengthAdjust="spacing" textLength="40.5" x="1216.5" y="674.8125">Bus</text><line style="stroke:#E74C3C;stroke-width:3.0;" x1="1174.5" x2="1260" y1="690.6094" y2="690.6094"/><line style="stroke:#E74C3C;stroke-width:3.0;" x1="1174.5" x2="1260" y1="702.6094" y2="702.6094"/></g><!--class InputDevice--><g id="elem_InputDevice"><rect codeLine="39" fill="#EEEEEE" height="72" id="InputDevice" rx="3.75" ry="3.75" style="stroke:#E74C3C;stroke-width:3.0;" width="175.5" x="1206" y="318.6094"/><ellipse cx="1228.5" cy="342.6094" fill="#ADD1B2" rx="16.5" ry="16.5" style="stroke:#181818;stroke-width:1.5;"/><path d="M1232.6484,336.4219 Q1232.8828,336.0938 1233.1641,335.9297 Q1233.4453,335.7656 1233.7734,335.7656 Q1234.3359,335.7656 1234.6875,336.1641 Q1235.0391,336.5391 1235.0391,337.4531 L1235.0391,339.6328 Q1235.0391,340.5469 1234.6875,340.9453 Q1234.3359,341.3438 1233.7734,341.3438 Q1233.2578,341.3438 1232.9531,341.0391 Q1232.6484,340.7578 1232.4844,339.9844 Q1232.4141,339.4453 1232.1328,339.1641 Q1231.6406,338.6016 1230.7266,338.2734 Q1229.8125,337.9453 1228.875,337.9453 Q1227.7266,337.9453 1226.7656,338.4375 Q1225.8281,338.9297 1225.0781,340.0547 Q1224.3516,341.1797 1224.3516,342.7266 L1224.3516,344.3672 Q1224.3516,346.2188 1225.6875,347.4609 Q1227.0234,348.6797 1229.4141,348.6797 Q1230.8203,348.6797 1231.8047,348.3047 Q1232.3906,348.0703 1233.0234,347.4141 Q1233.4219,347.0156 1233.6328,346.8984 Q1233.8672,346.7813 1234.1719,346.7813 Q1234.6641,346.7813 1235.0391,347.1797 Q1235.4375,347.5547 1235.4375,348.0703 Q1235.4375,348.5859 1234.9219,349.1953 Q1234.1719,350.0625 1232.9766,350.5547 Q1231.3594,351.2344 1229.4141,351.2344 Q1227.1406,351.2344 1225.3359,350.2969 Q1223.8594,349.5469 1222.8281,347.9531 Q1221.7969,346.3359 1221.7969,344.4141 L1221.7969,342.6797 Q1221.7969,340.6875 1222.7109,338.9766 Q1223.6484,337.2422 1225.2891,336.3281 Q1226.9297,335.3906 1228.7813,335.3906 Q1229.8828,335.3906 1230.8438,335.6484 Q1231.8281,335.8828 1232.6484,336.4219 Z " fill="#000000"/><text fill="#53575A" font-family="Roboto" font-size="24" font-weight="bold" lengthAdjust="spacing" textLength="127.5" x="1249.5" y="350.8125">InputDevice</text><line style="stroke:#E74C3C;stroke-width:3.0;" x1="1207.5" x2="1380" y1="366.6094" y2="366.6094"/><line style="stroke:#E74C3C;stroke-width:3.0;" x1="1207.5" x2="1380" y1="378.6094" y2="378.6094"/></g><!--class OutputDevice--><g id="elem_OutputDevice"><rect codeLine="51" fill="#EEEEEE" height="72" id="OutputDevice" rx="3.75" ry="3.75" style="stroke:#E74C3C;stroke-width:3.0;" width="192" x="1434.75" y="318.6094"/><ellipse cx="1457.25" cy="342.6094" fill="#ADD1B2" rx="16.5" ry="16.5" style="stroke:#181818;stroke-width:1.5;"/><path d="M1461.3984,336.4219 Q1461.6328,336.0938 1461.9141,335.9297 Q1462.1953,335.7656 1462.5234,335.7656 Q1463.0859,335.7656 1463.4375,336.1641 Q1463.7891,336.5391 1463.7891,337.4531 L1463.7891,339.6328 Q1463.7891,340.5469 1463.4375,340.9453 Q1463.0859,341.3438 1462.5234,341.3438 Q1462.0078,341.3438 1461.7031,341.0391 Q1461.3984,340.7578 1461.2344,339.9844 Q1461.1641,339.4453 1460.8828,339.1641 Q1460.3906,338.6016 1459.4766,338.2734 Q1458.5625,337.9453 1457.625,337.9453 Q1456.4766,337.9453 1455.5156,338.4375 Q1454.5781,338.9297 1453.8281,340.0547 Q1453.1016,341.1797 1453.1016,342.7266 L1453.1016,344.3672 Q1453.1016,346.2188 1454.4375,347.4609 Q1455.7734,348.6797 1458.1641,348.6797 Q1459.5703,348.6797 1460.5547,348.3047 Q1461.1406,348.0703 1461.7734,347.4141 Q1462.1719,347.0156 1462.3828,346.8984 Q1462.6172,346.7813 1462.9219,346.7813 Q1463.4141,346.7813 1463.7891,347.1797 Q1464.1875,347.5547 1464.1875,348.0703 Q1464.1875,348.5859 1463.6719,349.1953 Q1462.9219,350.0625 1461.7266,350.5547 Q1460.1094,351.2344 1458.1641,351.2344 Q1455.8906,351.2344 1454.0859,350.2969 Q1452.6094,349.5469 1451.5781,347.9531 Q1450.5469,346.3359 1450.5469,344.4141 L1450.5469,342.6797 Q1450.5469,340.6875 1451.4609,338.9766 Q1452.3984,337.2422 1454.0391,336.3281 Q1455.6797,335.3906 1457.5313,335.3906 Q1458.6328,335.3906 1459.5938,335.6484 Q1460.5781,335.8828 1461.3984,336.4219 Z " fill="#000000"/><text fill="#53575A" font-family="Roboto" font-size="24" font-weight="bold" lengthAdjust="spacing" textLength="144" x="1478.25" y="350.8125">OutputDevice</text><line style="stroke:#E74C3C;stroke-width:3.0;" x1="1436.25" x2="1625.25" y1="366.6094" y2="366.6094"/><line style="stroke:#E74C3C;stroke-width:3.0;" x1="1436.25" x2="1625.25" y1="378.6094" y2="378.6094"/></g><!--link VonNeumannArchitecture to CentralProcessingUnit--><g id="link_VonNeumannArchitecture_CentralProcessingUnit"><path codeLine="64" d="M1048.5705,233.4228 C952.6305,260.0478 846.5123,289.4878 750.5123,316.1278 " fill="none" id="VonNeumannArchitecture-CentralProcessingUnit" style="stroke:#53575A;stroke-width:3.0;"/><polygon fill="#53575A" points="1065.915,228.6094,1055.6383,225.2346,1048.5705,233.4228,1058.8472,236.7976,1065.915,228.6094" style="stroke:#53575A;stroke-width:3.0;"/><polygon fill="#53575A" points="741.84,318.5344,756.4528,320.7061,749.0669,316.5289,753.2441,309.143,741.84,318.5344" style="stroke:#53575A;stroke-width:3.0;"/></g><!--link VonNeumannArchitecture to Storage--><g id="link_VonNeumannArchitecture_Storage"><path codeLine="65" d="M1157.9726,243.6932 C1140.7226,270.1832 1131.7556,283.9771 1114.4306,310.5871 " fill="none" id="VonNeumannArchitecture-Storage" style="stroke:#53575A;stroke-width:3.0;"/><polygon fill="#53575A" points="1167.795,228.6094,1157.8559,232.8771,1157.9726,243.6932,1167.9117,239.4254,1167.795,228.6094" style="stroke:#53575A;stroke-width:3.0;"/><polygon fill="#53575A" points="1109.52,318.1294,1121.9141,310.0896,1113.6121,311.8441,1111.8577,303.5422,1109.52,318.1294" style="stroke:#53575A;stroke-width:3.0;"/></g><!--link VonNeumannArchitecture to InputDevice--><g id="link_VonNeumannArchitecture_InputDevice"><path codeLine="66" d="M1222.5274,243.6932 C1239.7774,270.1832 1248.7444,283.9771 1266.0694,310.5871 " fill="none" id="VonNeumannArchitecture-InputDevice" style="stroke:#53575A;stroke-width:3.0;"/><polygon fill="#53575A" points="1212.705,228.6094,1212.5883,239.4254,1222.5274,243.6932,1222.6441,232.8771,1212.705,228.6094" style="stroke:#53575A;stroke-width:3.0;"/><polygon fill="#53575A" points="1270.98,318.1294,1268.6423,303.5422,1266.8879,311.8441,1258.5859,310.0896,1270.98,318.1294" style="stroke:#53575A;stroke-width:3.0;"/></g><!--link VonNeumannArchitecture to OutputDevice--><g id="link_VonNeumannArchitecture_OutputDevice"><path codeLine="67" d="M1280.4489,236.2265 C1337.3589,262.8065 1391.24,287.9671 1448.27,314.5921 " fill="none" id="VonNeumannArchitecture-OutputDevice" style="stroke:#53575A;stroke-width:3.0;"/><polygon fill="#53575A" points="1264.14,228.6094,1269.7554,237.8542,1280.4489,236.2265,1274.8335,226.9816,1264.14,228.6094" style="stroke:#53575A;stroke-width:3.0;"/><polygon fill="#53575A" points="1456.425,318.3994,1446.7306,307.2518,1449.6291,315.2267,1441.6543,318.1252,1456.425,318.3994" style="stroke:#53575A;stroke-width:3.0;"/></g><!--link CentralProcessingUnit to ControlUnit--><g id="link_CentralProcessingUnit_ControlUnit"><path codeLine="69" d="M485.2366,395.8364 C402.7666,420.7064 306.21,449.9344 206.25,480.6094 C197.76,483.2194 197.5088,483.2923 188.6738,486.0223 " fill="none" id="CentralProcessingUnit-ControlUnit" style="stroke:#53575A;stroke-width:3.0;"/><polygon fill="#53575A" points="502.47,390.6394,492.121,387.4934,485.2366,395.8364,495.5856,398.9823,502.47,390.6394" style="stroke:#53575A;stroke-width:3.0;"/><polygon fill="#53575A" points="180.075,488.6794,194.7446,490.4264,187.2407,486.4652,191.2019,478.9613,180.075,488.6794" style="stroke:#53575A;stroke-width:3.0;"/></g><!--link CentralProcessingUnit to ArithmeticLogicUnit--><g id="link_CentralProcessingUnit_ArithmeticLogicUnit"><path codeLine="70" d="M546.9965,400.1741 C504.6215,426.7541 469.1752,448.9935 426.7102,475.6185 " fill="none" id="CentralProcessingUnit-ArithmeticLogicUnit" style="stroke:#53575A;stroke-width:3.0;"/><polygon fill="#53575A" points="562.245,390.6094,551.4325,390.3089,546.9965,400.1741,557.809,400.4746,562.245,390.6094" style="stroke:#53575A;stroke-width:3.0;"/><polygon fill="#53575A" points="419.085,480.3994,433.71,478.3115,425.4393,476.4153,427.3355,468.1446,419.085,480.3994" style="stroke:#53575A;stroke-width:3.0;"/></g><!--link CentralProcessingUnit to Register--><g id="link_CentralProcessingUnit_Register"><path codeLine="71" d="M617.25,408.6094 C617.25,435.0994 617.25,444.5194 617.25,471.1294 " fill="none" id="CentralProcessingUnit-Register" style="stroke:#53575A;stroke-width:3.0;"/><polygon fill="#53575A" points="617.25,390.6094,611.25,399.6094,617.25,408.6094,623.25,399.6094,617.25,390.6094" style="stroke:#53575A;stroke-width:3.0;"/><polygon fill="#53575A" points="617.25,480.1294,623.25,466.6294,617.25,472.6294,611.25,466.6294,617.25,480.1294" style="stroke:#53575A;stroke-width:3.0;"/><text fill="#88992E" font-family="Roboto" font-size="15" font-weight="bold" lengthAdjust="spacing" textLength="25.5" x="588.1641" y="465.1167">1..*</text></g><!--link Storage to MainMemory--><g id="link_Storage_MainMemory"><path codeLine="73" d="M1043.0235,403.8888 C1018.7835,430.3788 1003.6801,446.8791 979.3351,473.4891 " fill="none" id="Storage-MainMemory" style="stroke:#53575A;stroke-width:3.0;"/><polygon fill="none" points="1055.175,390.6094,1044.6728,393.1986,1043.0235,403.8888,1053.5257,401.2996,1055.175,390.6094" style="stroke:#53575A;stroke-width:3.0;"/><polygon fill="#53575A" points="973.26,480.1294,986.7995,474.219,978.3226,474.5958,977.9458,466.1189,973.26,480.1294" style="stroke:#53575A;stroke-width:3.0;"/></g><!--link Storage to SecondaryMemory--><g id="link_Storage_SecondaryMemory"><path codeLine="74" d="M1126.4876,404.5248 C1148.2226,431.0148 1160.9902,446.5625 1182.8302,473.1725 " fill="none" id="Storage-SecondaryMemory" style="stroke:#53575A;stroke-width:3.0;"/><polygon fill="none" points="1115.07,390.6094,1116.1403,401.3729,1126.4876,404.5248,1125.4173,393.7612,1115.07,390.6094" style="stroke:#53575A;stroke-width:3.0;"/><polygon fill="#53575A" points="1188.54,480.1294,1184.6132,465.8875,1183.7818,474.332,1175.3374,473.5006,1188.54,480.1294" style="stroke:#53575A;stroke-width:3.0;"/></g><!--link CentralProcessingUnit to Bus--><g id="link_CentralProcessingUnit_Bus"><path codeLine="82" d="M643.77,390.6544 C679.065,434.3794 745.56,509.1994 818.25,552.6094 C935.385,622.5394 1086.7921,655.3681 1163.6821,668.6881 " fill="none" id="CentralProcessingUnit-to-Bus" style="stroke:#53575A;stroke-width:3.0;stroke-dasharray:7.0,7.0;"/><polygon fill="#53575A" points="1172.55,670.2244,1160.2723,662.0081,1165.1601,668.9442,1158.224,673.832,1172.55,670.2244" style="stroke:#53575A;stroke-width:3.0;"/><text fill="#88992E" font-family="Roboto" font-size="15" font-weight="bold" lengthAdjust="spacing" textLength="25.5" x="1135.2009" y="664.3206">1..*</text></g><!--link MainMemory to Bus--><g id="link_MainMemory_Bus"><path codeLine="83" d="M1001.145,552.6094 C1052.82,582.3844 1118.5074,620.2202 1165.0674,647.0552 " fill="none" id="MainMemory-to-Bus" style="stroke:#53575A;stroke-width:3.0;stroke-dasharray:7.0,7.0;"/><polygon fill="#53575A" points="1172.865,651.5494,1164.1647,639.6097,1166.367,647.8042,1158.1725,650.0065,1172.865,651.5494" style="stroke:#53575A;stroke-width:3.0;"/><text fill="#88992E" font-family="Roboto" font-size="15" font-weight="bold" lengthAdjust="spacing" textLength="25.5" x="1135.5809" y="641.7939">1..*</text></g><!--link SecondaryMemory to Bus--><g id="link_SecondaryMemory_Bus"><path codeLine="84" d="M1217.25,552.6094 C1217.25,579.0994 1217.25,606.5194 1217.25,633.1294 " fill="none" id="SecondaryMemory-to-Bus" style="stroke:#53575A;stroke-width:3.0;stroke-dasharray:7.0,7.0;"/><polygon fill="#53575A" points="1217.25,642.1294,1223.25,628.6294,1217.25,634.6294,1211.25,628.6294,1217.25,642.1294" style="stroke:#53575A;stroke-width:3.0;"/><text fill="#88992E" font-family="Roboto" font-size="15" font-weight="bold" lengthAdjust="spacing" textLength="25.5" x="1188.1641" y="627.1167">1..*</text></g><!--link OutputDevice to Bus--><g id="link_OutputDevice_Bus"><path codeLine="86" d="M1516.275,390.6094 C1497.39,432.6094 1461.09,503.9344 1413.75,552.6094 C1369.125,598.4944 1312.4832,631.2712 1269.6732,652.6312 " fill="none" id="OutputDevice-to-Bus" style="stroke:#53575A;stroke-width:3.0;stroke-dasharray:7.0,7.0;"/><polygon fill="#53575A" points="1261.62,656.6494,1276.3786,655.991,1268.331,653.3009,1271.0211,645.2533,1261.62,656.6494" style="stroke:#53575A;stroke-width:3.0;"/><text fill="#88992E" font-family="Roboto" font-size="15" font-weight="bold" lengthAdjust="spacing" textLength="25.5" x="1483.4583" y="416.5625">1..*</text><text fill="#88992E" font-family="Roboto" font-size="15" font-weight="bold" lengthAdjust="spacing" textLength="25.5" x="1273.401" y="667.8489">1..*</text></g><!--link InputDevice to Bus--><g id="link_InputDevice_Bus"><path codeLine="87" d="M1324.575,390.8194 C1355.955,430.5994 1396.5,497.3944 1370.25,552.6094 C1348.05,599.3044 1306.6337,629.7997 1269.9737,650.5897 " fill="none" id="InputDevice-to-Bus" style="stroke:#53575A;stroke-width:3.0;stroke-dasharray:7.0,7.0;"/><polygon fill="#53575A" points="1262.145,655.0294,1276.8479,653.589,1268.6689,651.3296,1270.9283,643.1507,1262.145,655.0294" style="stroke:#53575A;stroke-width:3.0;"/><text fill="#88992E" font-family="Roboto" font-size="15" font-weight="bold" lengthAdjust="spacing" textLength="25.5" x="1303.7067" y="416.2664">1..*</text><text fill="#88992E" font-family="Roboto" font-size="15" font-weight="bold" lengthAdjust="spacing" textLength="25.5" x="1273.4939" y="646.285">1..*</text></g><rect fill="#DDDDDD" height="54.6094" id="_legend" rx="3.75" ry="3.75" style="stroke:#53575A;stroke-width:1.5;" width="468" x="574.125" y="768.6094"/><text fill="#53575A" font-family="Roboto" font-size="21" lengthAdjust="spacing" textLength="438" x="589.125" y="803.0918">Domain Model : The Von Neumann Architecture</text><text fill="#53575A" font-family="Roboto" font-size="21" lengthAdjust="spacing" textLength="310.5" x="652.875" y="883.2012">M&#225;ster en Ingenier&#237;a del Software</text><text fill="#53575A" font-family="Roboto" font-size="15" lengthAdjust="spacing" textLength="61.5" x="777.375" y="905.2441">escuela.it</text><!--SRC=[KypCIyufJKbLqDFJJqeiJjM7ylKAIdDpk1HXikb5cIbeGiavYSN5gSKGKH000000]--></g></svg>